<svg width="37" height="37" viewBox="0 0 37 37" fill="none" xmlns="http://www.w3.org/2000/svg">
<path d="M29.3107 36.4377C27.7476 36.4377 25.5519 35.8724 22.2639 34.0354C18.2656 31.7932 15.1729 29.7232 11.1963 25.7569C7.36213 21.9252 5.49631 19.4444 2.88496 14.6925C-0.0651196 9.32728 0.437771 6.51494 0.999919 5.31297C1.66937 3.87637 2.65754 3.01713 3.93478 2.1643C4.66025 1.68898 5.42798 1.28153 6.22822 0.947108C6.3083 0.912675 6.38277 0.879843 6.44924 0.850214C6.84562 0.67164 7.44621 0.401777 8.20695 0.690058C8.71465 0.880644 9.16789 1.27062 9.87738 1.97131C11.3324 3.40631 13.3207 6.60222 14.0543 8.17176C14.5467 9.22959 14.8727 9.92787 14.8735 10.711C14.8735 11.6279 14.4122 12.335 13.8525 13.0982C13.7476 13.2415 13.6435 13.3784 13.5426 13.5114C12.9332 14.3121 12.7994 14.5436 12.8875 14.9568C13.0661 15.7872 14.3978 18.2592 16.5863 20.4429C18.7749 22.6267 21.1756 23.8743 22.0092 24.052C22.44 24.1441 22.6763 24.0048 23.5027 23.3738C23.6212 23.2833 23.7429 23.1896 23.8702 23.0959C24.7239 22.4609 25.3981 22.0117 26.2934 22.0117H26.2982C27.0774 22.0117 27.7444 22.3496 28.8495 22.9069C30.2909 23.634 33.5829 25.5968 35.0267 27.0534C35.729 27.7613 36.1206 28.2129 36.312 28.7198C36.6003 29.4829 36.3288 30.0811 36.1518 30.4815C36.1222 30.548 36.0894 30.6209 36.0549 30.7017C35.7179 31.5006 35.308 32.2667 34.8305 32.9904C33.9793 34.2636 33.1169 35.2494 31.677 35.9196C30.9377 36.2693 30.1286 36.4465 29.3107 36.4377Z" fill="#1C4F8B"/>
</svg>
