<svg width="22" height="22" viewBox="0 0 22 22" fill="none" xmlns="http://www.w3.org/2000/svg">
<path d="M10.962 0.102295H10.9565C4.97031 0.102295 0.102356 4.97161 0.102356 10.9592C0.102356 13.3341 0.867767 15.5354 2.16924 17.3227L0.816197 21.356L4.98931 20.022C6.70606 21.1592 8.75394 21.8161 10.962 21.8161C16.9482 21.8161 21.8161 16.9454 21.8161 10.9592C21.8161 4.97297 16.9482 0.102295 10.962 0.102295Z" fill="#4CAF50"/>
<path d="M17.2797 15.4334C17.0177 16.173 15.9782 16.7864 15.149 16.9655C14.5817 17.0863 13.8407 17.1827 11.3464 16.1486C8.15579 14.8267 6.10113 11.5846 5.94099 11.3742C5.78764 11.1639 4.65173 9.6575 4.65173 8.09953C4.65173 6.54157 5.44293 5.78295 5.76185 5.45724C6.02377 5.18989 6.45669 5.06775 6.87197 5.06775C7.00632 5.06775 7.1271 5.07453 7.23567 5.07996C7.55459 5.09353 7.71473 5.11253 7.92509 5.61602C8.18701 6.24708 8.82485 7.80504 8.90085 7.96518C8.9782 8.12532 9.05556 8.34246 8.94699 8.55281C8.84521 8.76995 8.75564 8.8663 8.5955 9.05087C8.43536 9.23543 8.28336 9.37657 8.12322 9.57471C7.97666 9.74707 7.81109 9.93163 7.99566 10.2506C8.18022 10.5627 8.81807 11.6036 9.75719 12.4396C10.9691 13.5185 11.9516 13.8632 12.3031 14.0097C12.565 14.1183 12.8772 14.0925 13.0685 13.889C13.3115 13.627 13.6114 13.1928 13.9167 12.7653C14.1339 12.4586 14.408 12.4206 14.6957 12.5291C14.9889 12.6309 16.54 13.3977 16.8589 13.5565C17.1779 13.7166 17.3882 13.7926 17.4656 13.927C17.5416 14.0613 17.5416 14.6924 17.2797 15.4334Z" fill="#FAFAFA"/>
</svg>
