<svg width="27" height="28" viewBox="0 0 27 28" fill="none" xmlns="http://www.w3.org/2000/svg">
<g clip-path="url(#clip0_2_4484)">
<path d="M26.1586 5.74616C25.9164 3.47646 24.1239 1.68352 21.854 1.44149C16.1616 0.833958 10.4527 0.833958 4.76053 1.44149C2.49062 1.68373 0.697886 3.47646 0.455646 5.74616C-0.151882 11.4383 -0.151882 17.1475 0.455646 22.8396C0.697886 25.1095 2.49062 26.9022 4.76032 27.1445C10.4524 27.752 16.1616 27.752 21.854 27.1445C24.1239 26.9022 25.9164 25.1095 26.1586 22.8396C26.7662 17.1475 26.7662 11.4385 26.1586 5.74616Z" fill="url(#paint0_radial_2_4484)"/>
<path d="M24.7109 6.70903C24.4961 4.69497 22.9054 3.10407 20.8911 2.88904C15.84 2.35014 10.7739 2.35014 5.72283 2.88904C3.70876 3.10407 2.11786 4.69497 1.90283 6.70903C1.36393 11.7601 1.36393 16.8262 1.90283 21.8771C2.11786 23.8914 3.70876 25.4823 5.72283 25.6971C10.7739 26.2362 15.84 26.2362 20.8909 25.6971C22.9052 25.4823 24.4961 23.8914 24.7109 21.8771C25.25 16.8262 25.25 11.7601 24.7109 6.70903Z" fill="url(#paint1_linear_2_4484)"/>
<path d="M0.398926 22.288C0.4172 22.4719 0.436084 22.6559 0.45578 22.8399C0.69802 25.1096 2.49076 26.9023 4.76066 27.1445C10.4528 27.7521 16.162 27.7521 21.8541 27.1445C24.124 26.9023 25.9165 25.1096 26.1588 22.8399C26.1785 22.6559 26.1974 22.4719 26.2158 22.288H0.398926Z" fill="url(#paint2_linear_2_4484)"/>
<path d="M26.1587 22.8397C26.4852 19.7811 26.6359 16.7177 26.6115 13.6547L20.5281 7.57126C19.7681 6.70362 18.658 6.16209 17.3536 6.11518C14.6711 6.01853 11.9801 6.0234 9.29716 6.11559C7.06888 6.19234 5.51066 7.69004 5.11106 9.89132C5.0406 10.28 4.99837 10.6737 4.94293 11.0652V17.5185C4.97359 17.7277 5.01867 17.9358 5.03268 18.1461C5.12202 19.4851 5.67229 20.6319 6.55333 21.4078L12.7439 27.5982C15.782 27.6195 18.8202 27.4684 21.854 27.1446C24.1239 26.9023 25.9165 25.1096 26.1587 22.8397Z" fill="url(#paint3_linear_2_4484)"/>
<path d="M26.1588 22.8398C25.9168 25.1093 24.1236 26.9024 21.8541 27.1444C18.8208 27.4681 15.7819 27.6194 12.7443 27.598L6.56299 21.4168C7.27955 22.044 8.21359 22.4259 9.29747 22.4667C11.9798 22.5675 14.6714 22.5648 17.3537 22.4682C19.7798 22.3805 21.5353 20.5849 21.6111 18.1588C21.6919 15.5829 21.6919 13.0003 21.6111 10.4244C21.5766 9.30519 21.1837 8.32039 20.5323 7.5752L26.6118 13.6547C26.6358 16.7174 26.4851 19.7812 26.1588 22.8398Z" fill="url(#paint4_linear_2_4484)"/>
<path d="M16.4479 11.411C15.6685 10.5624 14.5503 10.03 13.3075 10.03C10.9533 10.03 9.04462 11.9387 9.04462 14.2929C9.04462 15.5358 9.57702 16.654 10.4256 17.4333L20.2884 27.2961C20.8104 27.2506 21.3324 27.2 21.8541 27.1444C24.124 26.9021 25.9167 25.1094 26.159 22.8395C26.2146 22.3179 26.2652 21.7958 26.3106 21.2738L16.4479 11.411Z" fill="url(#paint5_linear_2_4484)"/>
<path d="M26.5627 17.1598L18.625 9.22236C18.4399 8.9793 18.1481 8.82153 17.8189 8.82153C17.2589 8.82153 16.8047 9.27555 16.8047 9.83577C16.8047 10.1649 16.9625 10.4567 17.2055 10.6419L26.4208 19.8573C26.4833 18.9584 26.5306 18.0591 26.5627 17.1598Z" fill="url(#paint6_linear_2_4484)"/>
<path d="M4.94293 11.0652C4.99837 10.6737 5.0406 10.28 5.11106 9.89132C5.51046 7.69004 7.06888 6.19234 9.29716 6.11559C11.9801 6.0234 14.6711 6.01853 17.3536 6.11518C19.7788 6.20249 21.5352 7.99827 21.611 10.4243C21.6916 13.0004 21.6916 15.5828 21.611 18.1589C21.5352 20.585 19.7795 22.3806 17.3538 22.4681C14.6713 22.5649 11.9797 22.5674 9.29736 22.4667C6.87171 22.3755 5.19492 20.5757 5.03268 18.1459C5.01867 17.9358 4.97359 17.7275 4.94293 17.5183C4.94293 15.3672 4.94293 13.2161 4.94293 11.0652ZM13.3094 21.0303C14.5371 21.0303 15.766 21.067 16.992 21.0218C18.9143 20.9505 20.0966 19.8032 20.1415 17.8828C20.1971 15.4898 20.1971 13.0936 20.1415 10.7005C20.0966 8.78043 18.9134 7.60639 16.992 7.56557C14.5531 7.514 12.1116 7.5144 9.6728 7.56557C7.76595 7.60557 6.58013 8.75586 6.52835 10.6548C6.46256 13.078 6.46256 15.5055 6.52835 17.9287C6.58013 19.8274 7.76595 20.9511 9.673 21.0218C10.8836 21.0668 12.0972 21.0303 13.3094 21.0303Z" fill="url(#paint7_linear_2_4484)"/>
<path d="M4.94293 11.0652C4.99837 10.6737 5.0406 10.28 5.11106 9.89132C5.51046 7.69004 7.06888 6.19234 9.29716 6.11559C11.9801 6.0234 14.6711 6.01853 17.3536 6.11518C19.7788 6.20249 21.5352 7.99827 21.611 10.4243C21.6916 13.0004 21.6916 15.5828 21.611 18.1589C21.5352 20.585 19.7795 22.3806 17.3538 22.4681C14.6713 22.5649 11.9797 22.5674 9.29736 22.4667C6.87171 22.3755 5.19492 20.5757 5.03268 18.1459C5.01867 17.9358 4.97359 17.7275 4.94293 17.5183C4.94293 15.3672 4.94293 13.2161 4.94293 11.0652ZM13.3094 21.0303C14.5371 21.0303 15.766 21.067 16.992 21.0218C18.9143 20.9505 20.0966 19.8032 20.1415 17.8828C20.1971 15.4898 20.1971 13.0936 20.1415 10.7005C20.0966 8.78043 18.9134 7.60639 16.992 7.56557C14.5531 7.514 12.1116 7.5144 9.6728 7.56557C7.76595 7.60557 6.58013 8.75586 6.52835 10.6548C6.46256 13.078 6.46256 15.5055 6.52835 17.9287C6.58013 19.8274 7.76595 20.9511 9.673 21.0218C10.8836 21.0668 12.0972 21.0303 13.3094 21.0303Z" fill="white"/>
<path d="M13.3075 10.0305C10.9533 10.0305 9.04462 11.939 9.04462 14.2932C9.04462 16.6475 10.9533 18.556 13.3075 18.556C15.6618 18.556 17.5703 16.6475 17.5703 14.2932C17.5703 11.939 15.6618 10.0305 13.3075 10.0305ZM13.3075 17.0884C11.7637 17.0884 10.5123 15.837 10.5123 14.2932C10.5123 12.7494 11.7637 11.498 13.3075 11.498C14.8513 11.498 16.1027 12.7494 16.1027 14.2932C16.1027 15.837 14.8513 17.0884 13.3075 17.0884Z" fill="white"/>
<path d="M18.833 9.83602C18.833 10.396 18.379 10.8501 17.819 10.8501C17.259 10.8501 16.8047 10.396 16.8047 9.83602C16.8047 9.2758 17.259 8.82178 17.819 8.82178C18.379 8.82178 18.833 9.2758 18.833 9.83602Z" fill="white"/>
</g>
<defs>
<radialGradient id="paint0_radial_2_4484" cx="0" cy="0" r="1" gradientUnits="userSpaceOnUse" gradientTransform="translate(5.45578 24.2446) scale(29.3509)">
<stop stop-color="#FAE100"/>
<stop offset="0.0544" stop-color="#FADC04"/>
<stop offset="0.1167" stop-color="#FBCE0E"/>
<stop offset="0.1829" stop-color="#FCB720"/>
<stop offset="0.2514" stop-color="#FE9838"/>
<stop offset="0.3054" stop-color="#FF7950"/>
<stop offset="0.4922" stop-color="#FF1C74"/>
<stop offset="1" stop-color="#6C1CD1"/>
</radialGradient>
<linearGradient id="paint1_linear_2_4484" x1="10.2075" y1="12.5497" x2="-34.8803" y2="-12.8121" gradientUnits="userSpaceOnUse">
<stop stop-color="#A1B5D8" stop-opacity="0"/>
<stop offset="0.3094" stop-color="#90A2BD" stop-opacity="0.309804"/>
<stop offset="0.7554" stop-color="#7C8B9C" stop-opacity="0.756863"/>
<stop offset="1" stop-color="#748290"/>
</linearGradient>
<linearGradient id="paint2_linear_2_4484" x1="13.3073" y1="24.4796" x2="13.3073" y2="28.6281" gradientUnits="userSpaceOnUse">
<stop stop-color="#FAE100" stop-opacity="0"/>
<stop offset="0.3068" stop-color="#FCA800" stop-opacity="0.305882"/>
<stop offset="0.6275" stop-color="#FE7300" stop-opacity="0.627451"/>
<stop offset="0.8685" stop-color="#FF5200" stop-opacity="0.866667"/>
<stop offset="1" stop-color="#FF4500"/>
</linearGradient>
<linearGradient id="paint3_linear_2_4484" x1="11.7931" y1="12.7413" x2="5.20652" y2="6.1547" gradientUnits="userSpaceOnUse">
<stop stop-color="#833AB4" stop-opacity="0"/>
<stop offset="1" stop-color="#833AB4"/>
</linearGradient>
<linearGradient id="paint4_linear_2_4484" x1="18.2403" y1="25.3279" x2="14.9528" y2="9.82972" gradientUnits="userSpaceOnUse">
<stop stop-color="#833AB4" stop-opacity="0"/>
<stop offset="1" stop-color="#833AB4"/>
</linearGradient>
<linearGradient id="paint5_linear_2_4484" x1="19.4914" y1="20.4768" x2="6.28697" y2="7.27237" gradientUnits="userSpaceOnUse">
<stop stop-color="#833AB4" stop-opacity="0"/>
<stop offset="1" stop-color="#833AB4"/>
</linearGradient>
<linearGradient id="paint6_linear_2_4484" x1="20.4705" y1="12.4873" x2="16.104" y2="8.12084" gradientUnits="userSpaceOnUse">
<stop stop-color="#833AB4" stop-opacity="0"/>
<stop offset="1" stop-color="#833AB4"/>
</linearGradient>
<linearGradient id="paint7_linear_2_4484" x1="18.5915" y1="9.04555" x2="7.82542" y2="19.8116" gradientUnits="userSpaceOnUse">
<stop stop-color="#833AB4"/>
<stop offset="0.0922" stop-color="#9C3495"/>
<stop offset="0.2927" stop-color="#DC2546"/>
<stop offset="0.392" stop-color="#FD1D1D"/>
<stop offset="0.5589" stop-color="#FC6831"/>
<stop offset="0.6887" stop-color="#FC9B40"/>
<stop offset="0.7521" stop-color="#FCAF45"/>
<stop offset="0.7806" stop-color="#FDB750"/>
<stop offset="0.8656" stop-color="#FECB6A"/>
<stop offset="0.9415" stop-color="#FFD87A"/>
<stop offset="1" stop-color="#FFDC80"/>
</linearGradient>
<clipPath id="clip0_2_4484">
<rect width="26.6143" height="26.6143" fill="white" transform="translate(0 0.98584)"/>
</clipPath>
</defs>
</svg>
