<svg width="28" height="28" viewBox="0 0 28 28" fill="none" xmlns="http://www.w3.org/2000/svg">
<g clip-path="url(#clip0_2_4497)">
<path d="M14.2001 27.6C21.8216 27.6 28.0001 21.4215 28.0001 13.8C28.0001 6.17847 21.8216 0 14.2001 0C6.57856 0 0.400085 6.17847 0.400085 13.8C0.400085 21.4215 6.57856 27.6 14.2001 27.6Z" fill="#4D76A1"/>
<path fill-rule="evenodd" clip-rule="evenodd" d="M13.6788 19.8524H14.7619C14.7619 19.8524 15.0891 19.8165 15.2562 19.6364C15.4099 19.4711 15.405 19.1606 15.405 19.1606C15.405 19.1606 15.3838 17.7073 16.0583 17.4933C16.7233 17.2825 17.5771 18.8979 18.4822 19.5191C19.1665 19.9892 19.6866 19.8861 19.6866 19.8861L22.1065 19.8524C22.1065 19.8524 23.3724 19.7744 22.7721 18.7791C22.7229 18.6977 22.4226 18.0428 20.9729 16.6972C19.4556 15.2889 19.6588 15.5167 21.4865 13.0806C22.5997 11.5969 23.0447 10.6912 22.9057 10.3032C22.7731 9.93376 21.9544 10.0314 21.9544 10.0314L19.2298 10.0484C19.2298 10.0484 19.0278 10.0208 18.878 10.1104C18.7316 10.1982 18.6374 10.4029 18.6374 10.4029C18.6374 10.4029 18.2062 11.5509 17.631 12.5273C16.4178 14.5875 15.9326 14.6963 15.7344 14.5684C15.2731 14.2702 15.3883 13.3706 15.3883 12.7315C15.3883 10.735 15.6911 9.90251 14.7986 9.68702C14.5024 9.61543 14.2845 9.5682 13.527 9.56058C12.5548 9.55049 11.732 9.56353 11.2661 9.79181C10.9561 9.9436 10.717 10.2818 10.8626 10.3013C11.0427 10.3254 11.4506 10.4112 11.6668 10.7057C11.946 11.0855 11.9362 11.9386 11.9362 11.9386C11.9362 11.9386 12.0966 14.2889 11.5615 14.5809C11.1942 14.7811 10.6904 14.3723 9.60877 12.5032C9.05454 11.5458 8.6361 10.4875 8.6361 10.4875C8.6361 10.4875 8.55541 10.2897 8.4115 10.1839C8.23684 10.0558 7.99281 10.0149 7.99281 10.0149L5.40368 10.0319C5.40368 10.0319 5.015 10.0427 4.87233 10.2117C4.74539 10.362 4.86224 10.673 4.86224 10.673C4.86224 10.673 6.88926 15.4153 9.18443 17.8052C11.2889 19.9963 13.6788 19.8524 13.6788 19.8524Z" fill="white"/>
</g>
<defs>
<clipPath id="clip0_2_4497">
<rect width="27.6" height="27.6" fill="white" transform="translate(0.400085)"/>
</clipPath>
</defs>
</svg>
