<svg width="22" height="24" viewBox="0 0 22 24" fill="none" xmlns="http://www.w3.org/2000/svg">
<path d="M19.3437 15.1054C18.994 16.5229 17.2008 18.2851 15.7761 18.6107C13.9109 18.9746 12.0309 19.1302 10.1528 19.0768C10.1155 19.0758 10.0796 19.0906 10.0535 19.1181L8.30476 20.9599L6.44467 22.9186C6.30867 23.0641 6.06978 22.9651 6.06978 22.7643V18.7464C6.06978 18.6801 6.02358 18.6237 5.96004 18.6109L5.95896 18.6107C4.53421 18.2851 2.74176 16.5228 2.39133 15.1053C1.80848 12.3626 1.80848 9.5822 2.39133 6.83948C2.74176 5.42198 4.53421 3.6597 5.95896 3.33411C9.21646 2.69845 12.5193 2.69845 15.7761 3.33411C17.2015 3.6597 18.994 5.42198 19.3437 6.83948C19.9272 9.58227 19.9272 12.3626 19.3437 15.1054Z" fill="#7D3DAF"/>
<path fill-rule="evenodd" clip-rule="evenodd" d="M21.2391 6.39954L21.2326 6.37296C20.7087 4.20019 18.3471 1.8687 16.1783 1.38365L16.1538 1.37848C12.6459 0.691875 9.0891 0.691875 5.58191 1.37848L5.55672 1.38365C3.38865 1.8687 1.02702 4.20019 0.502454 6.37296L0.496697 6.39954C-0.150917 9.43388 -0.150917 12.511 0.496697 15.5454L0.502454 15.572C1.00464 17.652 3.19041 19.8764 5.27825 20.4881V22.9135C5.27825 23.7913 6.32091 24.2225 6.91383 23.589L9.30892 21.0347C9.82838 21.0645 10.3481 21.0811 10.8679 21.0811C12.6337 21.0811 14.4002 20.9098 16.1538 20.5665L16.1783 20.5613C18.3471 20.0763 20.7087 17.7448 21.2326 15.572L21.2391 15.5455C21.8867 12.511 21.8867 9.43388 21.2391 6.39954ZM15.7761 18.6107C17.2008 18.2851 18.994 16.5229 19.3437 15.1054C19.9272 12.3626 19.9272 9.58227 19.3437 6.83948C18.994 5.42198 17.2015 3.6597 15.7761 3.33411C12.5193 2.69845 9.21646 2.69845 5.95896 3.33411C4.53421 3.6597 2.74176 5.42198 2.39133 6.83948C1.80848 9.5822 1.80848 12.3626 2.39133 15.1053C2.74176 16.5228 4.53421 18.2851 5.95896 18.6107L5.96004 18.6109C6.02358 18.6237 6.06978 18.6801 6.06978 18.7464V22.7643C6.06978 22.9651 6.30867 23.0641 6.44467 22.9186L8.30476 20.9599L10.0535 19.1181C10.0796 19.0906 10.1155 19.0758 10.1528 19.0768C12.0309 19.1302 13.9109 18.9746 15.7761 18.6107Z" fill="#7D3DAF"/>
<path d="M13.9674 17.1466C13.7484 17.0776 13.5397 17.0312 13.3458 16.9477C11.337 16.0827 9.48832 14.9668 8.02392 13.2562C7.19116 12.2834 6.53938 11.1852 5.9884 10.023C5.72712 9.47181 5.50694 8.89906 5.2825 8.33005C5.07786 7.81115 5.37928 7.27507 5.69669 6.8841C5.99452 6.51718 6.37776 6.23637 6.79281 6.02942C7.11676 5.86788 7.43632 5.96101 7.67292 6.246C8.18439 6.86214 8.65419 7.5098 9.03463 8.224C9.26856 8.66329 9.20438 9.20026 8.78041 9.49922C8.67737 9.57188 8.58346 9.65717 8.48747 9.73925C8.40328 9.81117 8.32406 9.88384 8.26635 9.98122C8.16086 10.1594 8.15582 10.3696 8.22375 10.5633C8.74659 12.0546 9.62785 13.2142 11.074 13.8388C11.3055 13.9387 11.5379 14.0551 11.8045 14.0228C12.251 13.9687 12.3955 13.4604 12.7084 13.1948C13.0142 12.9353 13.405 12.9318 13.7344 13.1482C14.0639 13.3646 14.3833 13.597 14.7008 13.8318C15.0125 14.0622 15.3227 14.2877 15.6102 14.5504C15.8866 14.8031 15.9818 15.1345 15.8262 15.4774C15.5412 16.1054 15.1266 16.6278 14.5285 16.9612C14.3596 17.0553 14.1579 17.0857 13.9674 17.1466Z" fill="white"/>
<path d="M10.8731 5.31168C13.5006 5.38808 15.6586 7.19789 16.1211 9.89397C16.1999 10.3534 16.228 10.823 16.263 11.2893C16.2778 11.4854 16.1708 11.6717 15.9668 11.6743C15.7562 11.6769 15.6615 11.494 15.6478 11.298C15.6207 10.9099 15.6019 10.5201 15.5504 10.1353C15.2784 8.10381 13.7177 6.42312 11.7694 6.06248C11.4763 6.00818 11.1762 5.99392 10.8793 5.96158C10.6915 5.94112 10.4456 5.92932 10.404 5.68712C10.3691 5.48405 10.5343 5.32236 10.7206 5.31198C10.7712 5.30907 10.8222 5.31146 10.8731 5.31168Z" fill="white"/>
<path d="M14.8668 10.6837C14.8625 10.7177 14.8602 10.7978 14.841 10.8732C14.7713 11.147 14.3713 11.1813 14.2792 10.905C14.252 10.8229 14.2479 10.7297 14.2477 10.6414C14.2468 10.0638 14.1258 9.48678 13.8452 8.98423C13.5567 8.46772 13.116 8.03351 12.599 7.77077C12.2865 7.61192 11.9484 7.51319 11.6058 7.45434C11.4561 7.42865 11.3047 7.41304 11.1543 7.39131C10.9719 7.36502 10.8746 7.2444 10.8832 7.05792C10.8913 6.88316 11.0143 6.75746 11.1978 6.76822C11.8008 6.80377 12.3832 6.93902 12.9193 7.23365C14.0095 7.83284 14.6322 8.77863 14.8139 10.0415C14.8221 10.0987 14.8354 10.1554 14.8396 10.2129C14.8498 10.3547 14.8563 10.4967 14.8668 10.6837C14.8625 10.7177 14.8563 10.4967 14.8668 10.6837Z" fill="white"/>
<path d="M13.2321 10.6179C13.0122 10.622 12.8946 10.4957 12.8719 10.2866C12.8562 10.1407 12.8437 9.99289 12.8102 9.851C12.7441 9.57153 12.601 9.31253 12.3745 9.14128C12.2676 9.06039 12.1464 9.00147 12.0195 8.96345C11.8582 8.91513 11.6908 8.92843 11.5299 8.8875C11.3552 8.84306 11.2585 8.69624 11.286 8.52611C11.311 8.37129 11.4561 8.25045 11.6191 8.2627C12.6378 8.33902 13.3658 8.88563 13.4697 10.1303C13.4771 10.2181 13.4857 10.311 13.4669 10.395C13.4348 10.5388 13.3322 10.6109 13.2321 10.6179C13.0122 10.622 13.3322 10.6109 13.2321 10.6179Z" fill="white"/>
</svg>
