<svg width="24" height="24" viewBox="0 0 24 24" fill="none" xmlns="http://www.w3.org/2000/svg">
<path d="M11.6943 23.2711C18.0345 23.2711 23.1715 18.134 23.1715 11.7938C23.1715 5.45357 18.0345 0.316528 11.6943 0.316528C5.35402 0.316528 0.21698 5.45357 0.21698 11.7938C0.21698 18.134 5.35402 23.2711 11.6943 23.2711ZM5.46879 11.5451L16.5348 7.27845C17.0484 7.09291 17.497 7.40375 17.3306 8.18038L17.3315 8.17942L15.4473 17.0561C15.3077 17.6855 14.9337 17.8385 14.4105 17.542L11.5412 15.4273L10.1573 16.7606C10.0042 16.9136 9.87511 17.0428 9.57861 17.0428L9.78234 14.1227L15.1001 9.31854C15.3316 9.11482 15.0485 9.00005 14.7434 9.20281L8.17169 13.3404L5.33872 12.4566C4.72373 12.2615 4.71034 11.8416 5.46879 11.5451Z" fill="white"/>
<path d="M5.46879 11.5451L16.5348 7.27845C17.0484 7.09291 17.497 7.40375 17.3306 8.18038L17.3315 8.17942L15.4473 17.0561C15.3077 17.6855 14.9337 17.8385 14.4105 17.542L11.5412 15.4273L10.1573 16.7606C10.0042 16.9136 9.87511 17.0428 9.57861 17.0428L9.78234 14.1227L15.1001 9.31854C15.3316 9.11482 15.0485 9.00005 14.7434 9.20281L8.17169 13.3404L5.33872 12.4566C4.72373 12.2615 4.71034 11.8416 5.46879 11.5451Z" fill="white"/>
<path d="M11.6941 23.271C18.0343 23.271 23.1714 18.1339 23.1714 11.7937C23.1714 5.45344 18.0343 0.316406 11.6941 0.316406C5.35384 0.316406 0.216797 5.45344 0.216797 11.7937C0.216797 18.1339 5.35384 23.271 11.6941 23.271ZM5.46861 11.545L16.5346 7.27833C17.0482 7.09278 17.4968 7.40363 17.3304 8.18026L17.3313 8.1793L15.4471 17.056C15.3075 17.6854 14.9335 17.8384 14.4104 17.5419L11.541 15.4272L10.1571 16.7605C10.004 16.9135 9.87493 17.0426 9.57843 17.0426L9.78215 14.1226L15.1 9.31842C15.3314 9.1147 15.0483 8.99992 14.7432 9.20269L8.17151 13.3402L5.33853 12.4565C4.72354 12.2614 4.71015 11.8415 5.46861 11.545Z" fill="#039BE5"/>
</svg>
