<svg width="38" height="38" viewBox="0 0 38 38" fill="none" xmlns="http://www.w3.org/2000/svg">
<g clip-path="url(#clip0_2_8795)">
<path d="M37.3494 6.79681C37.0036 3.55612 34.4442 0.996155 31.2032 0.650574C23.0757 -0.216858 14.9243 -0.216858 6.7971 0.650574C3.55612 0.996445 0.996445 3.55612 0.650574 6.79681C-0.216858 14.9241 -0.216858 23.0757 0.650574 31.2029C0.996445 34.4439 3.55612 37.0036 6.79681 37.3494C14.9241 38.2169 23.0757 38.2169 31.2032 37.3494C34.4442 37.0036 37.0036 34.4439 37.3494 31.2029C38.2169 23.0757 38.2169 14.9243 37.3494 6.79681Z" fill="url(#paint0_radial_2_8795)"/>
<path d="M35.2824 8.17143C34.9756 5.29574 32.7044 3.02424 29.8284 2.71722C22.6165 1.94778 15.383 1.94778 8.17106 2.71722C5.29537 3.02424 3.02387 5.29574 2.71685 8.17143C1.94741 15.3834 1.94741 22.6168 2.71685 29.8285C3.02387 32.7045 5.29537 34.976 8.17106 35.2827C15.383 36.0525 22.6165 36.0525 29.8281 35.2827C32.7041 34.976 34.9756 32.7045 35.2824 29.8285C36.0521 22.6168 36.0521 15.3834 35.2824 8.17143Z" fill="url(#paint1_linear_2_8795)"/>
<path d="M0.56958 30.415C0.595673 30.6777 0.622635 30.9404 0.650757 31.203C0.996628 34.4437 3.5563 37.0034 6.79729 37.3493C14.9245 38.2167 23.0761 38.2167 31.2034 37.3493C34.4443 37.0034 37.0037 34.4437 37.3496 31.203C37.3777 30.9404 37.4047 30.6777 37.4311 30.415H0.56958Z" fill="url(#paint2_linear_2_8795)"/>
<path d="M37.3495 31.2028C37.8157 26.8358 38.0308 22.4618 37.996 18.0884L29.3101 9.40249C28.2249 8.16367 26.6399 7.39047 24.7775 7.32349C20.9474 7.18549 17.1051 7.19245 13.2745 7.32407C10.0929 7.43366 7.8681 9.57209 7.29755 12.7151C7.19695 13.27 7.13664 13.8321 7.0575 14.3911V23.6052C7.10127 23.9038 7.16563 24.201 7.18564 24.5014C7.3132 26.4131 8.09888 28.0505 9.35683 29.1583L18.1958 37.997C22.5336 38.0274 26.8716 37.8117 31.2032 37.3493C34.4442 37.0035 37.0036 34.4438 37.3495 31.2028Z" fill="url(#paint3_linear_2_8795)"/>
<path d="M37.3496 31.203C37.004 34.4434 34.4438 37.0037 31.2034 37.3492C26.8723 37.8114 22.5334 38.0274 18.1963 37.9969L9.37061 29.1713C10.3937 30.0668 11.7273 30.6122 13.2749 30.6704C17.1047 30.8142 20.9479 30.8105 24.7777 30.6725C28.2416 30.5472 30.7482 27.9835 30.8563 24.5195C30.9717 20.8417 30.9717 17.1542 30.8563 13.4763C30.8071 11.8783 30.2461 10.4722 29.316 9.4082L37.9964 18.0886C38.0306 22.4614 37.8155 26.836 37.3496 31.203Z" fill="url(#paint4_linear_2_8795)"/>
<path d="M23.4843 14.8848C22.3716 13.6732 20.775 12.9131 19.0005 12.9131C15.6392 12.9131 12.9139 15.6383 12.9139 18.9996C12.9139 20.7742 13.6741 22.3708 14.8857 23.4835L28.9678 37.5656C29.7132 37.5007 30.4586 37.4285 31.2034 37.349C34.4443 37.0032 37.004 34.4435 37.3499 31.2025C37.4293 30.4577 37.5015 29.7123 37.5665 28.967L23.4843 14.8848Z" fill="url(#paint5_linear_2_8795)"/>
<path d="M37.9263 23.0934L26.5929 11.7603C26.3285 11.4133 25.9119 11.188 25.4419 11.188C24.6423 11.188 23.9938 11.8362 23.9938 12.6361C23.9938 13.1061 24.219 13.5227 24.5661 13.7871L37.7237 26.945C37.813 25.6615 37.8805 24.3775 37.9263 23.0934Z" fill="url(#paint6_linear_2_8795)"/>
<path d="M7.0575 14.3911C7.13664 13.8321 7.19695 13.27 7.29755 12.7151C7.86781 9.57209 10.0929 7.43366 13.2745 7.32407C17.1051 7.19245 20.9474 7.18549 24.7775 7.32349C28.2403 7.44816 30.7481 10.0122 30.8562 13.4761C30.9713 17.1543 30.9713 20.8415 30.8562 24.5196C30.7481 27.9836 28.2412 30.5473 24.7778 30.6723C20.9477 30.8105 17.1046 30.814 13.2748 30.6702C9.81142 30.54 7.41728 27.9702 7.18564 24.5011C7.16563 24.201 7.10127 23.9036 7.0575 23.6049C7.0575 20.5336 7.0575 17.4622 7.0575 14.3911ZM19.0032 28.6193C20.7561 28.6193 22.5107 28.6718 24.2612 28.6072C27.0058 28.5054 28.694 26.8674 28.7581 24.1253C28.8375 20.7087 28.8375 17.2874 28.7581 13.8704C28.694 11.1289 27.0047 9.45265 24.2612 9.39437C20.779 9.32073 17.293 9.32131 13.8108 9.39437C11.0882 9.45149 9.3951 11.0939 9.32117 13.8052C9.22723 17.265 9.22723 20.731 9.32117 24.1909C9.3951 26.9019 11.0882 28.5063 13.8111 28.6072C15.5396 28.6715 17.2724 28.6193 19.0032 28.6193Z" fill="url(#paint7_linear_2_8795)"/>
<path d="M7.0575 14.3911C7.13664 13.8321 7.19695 13.27 7.29755 12.7151C7.86781 9.57209 10.0929 7.43366 13.2745 7.32407C17.1051 7.19245 20.9474 7.18549 24.7775 7.32349C28.2403 7.44816 30.7481 10.0122 30.8562 13.4761C30.9713 17.1543 30.9713 20.8415 30.8562 24.5196C30.7481 27.9836 28.2412 30.5473 24.7778 30.6723C20.9477 30.8105 17.1046 30.814 13.2748 30.6702C9.81142 30.54 7.41728 27.9702 7.18564 24.5011C7.16563 24.201 7.10127 23.9036 7.0575 23.6049C7.0575 20.5336 7.0575 17.4622 7.0575 14.3911ZM19.0032 28.6193C20.7561 28.6193 22.5107 28.6718 24.2612 28.6072C27.0058 28.5054 28.694 26.8674 28.7581 24.1253C28.8375 20.7087 28.8375 17.2874 28.7581 13.8704C28.694 11.1289 27.0047 9.45265 24.2612 9.39437C20.779 9.32073 17.293 9.32131 13.8108 9.39437C11.0882 9.45149 9.3951 11.0939 9.32117 13.8052C9.22723 17.265 9.22723 20.731 9.32117 24.1909C9.3951 26.9019 11.0882 28.5063 13.8111 28.6072C15.5396 28.6715 17.2724 28.6193 19.0032 28.6193Z" fill="white"/>
<path d="M19.0005 12.9141C15.6392 12.9141 12.9139 15.639 12.9139 19.0003C12.9139 22.3619 15.6392 25.0868 19.0005 25.0868C22.362 25.0868 25.087 22.3619 25.087 19.0003C25.087 15.639 22.362 12.9141 19.0005 12.9141ZM19.0005 22.9913C16.7962 22.9913 15.0095 21.2045 15.0095 19.0003C15.0095 16.7961 16.7962 15.0093 19.0005 15.0093C21.2047 15.0093 22.9915 16.7961 22.9915 19.0003C22.9915 21.2045 21.2047 22.9913 19.0005 22.9913Z" fill="white"/>
<path d="M26.8899 12.6361C26.8899 13.4357 26.2416 14.084 25.442 14.084C24.6424 14.084 23.9939 13.4357 23.9939 12.6361C23.9939 11.8362 24.6424 11.188 25.442 11.188C26.2416 11.188 26.8899 11.8362 26.8899 12.6361Z" fill="white"/>
</g>
<defs>
<radialGradient id="paint0_radial_2_8795" cx="0" cy="0" r="1" gradientUnits="userSpaceOnUse" gradientTransform="translate(7.78979 33.209) scale(41.9073)">
<stop stop-color="#FAE100"/>
<stop offset="0.0544" stop-color="#FADC04"/>
<stop offset="0.1167" stop-color="#FBCE0E"/>
<stop offset="0.1829" stop-color="#FCB720"/>
<stop offset="0.2514" stop-color="#FE9838"/>
<stop offset="0.3054" stop-color="#FF7950"/>
<stop offset="0.4922" stop-color="#FF1C74"/>
<stop offset="1" stop-color="#6C1CD1"/>
</radialGradient>
<linearGradient id="paint1_linear_2_8795" x1="14.5743" y1="16.5108" x2="-49.8022" y2="-19.701" gradientUnits="userSpaceOnUse">
<stop stop-color="#A1B5D8" stop-opacity="0"/>
<stop offset="0.3094" stop-color="#90A2BD" stop-opacity="0.309804"/>
<stop offset="0.7554" stop-color="#7C8B9C" stop-opacity="0.756863"/>
<stop offset="1" stop-color="#748290"/>
</linearGradient>
<linearGradient id="paint2_linear_2_8795" x1="19.0002" y1="33.5442" x2="19.0002" y2="39.4674" gradientUnits="userSpaceOnUse">
<stop stop-color="#FAE100" stop-opacity="0"/>
<stop offset="0.3068" stop-color="#FCA800" stop-opacity="0.305882"/>
<stop offset="0.6275" stop-color="#FE7300" stop-opacity="0.627451"/>
<stop offset="0.8685" stop-color="#FF5200" stop-opacity="0.866667"/>
<stop offset="1" stop-color="#FF4500"/>
</linearGradient>
<linearGradient id="paint3_linear_2_8795" x1="16.8382" y1="16.7843" x2="7.43385" y2="7.37993" gradientUnits="userSpaceOnUse">
<stop stop-color="#833AB4" stop-opacity="0"/>
<stop offset="1" stop-color="#833AB4"/>
</linearGradient>
<linearGradient id="paint4_linear_2_8795" x1="26.0435" y1="34.7555" x2="21.3496" y2="12.6272" gradientUnits="userSpaceOnUse">
<stop stop-color="#833AB4" stop-opacity="0"/>
<stop offset="1" stop-color="#833AB4"/>
</linearGradient>
<linearGradient id="paint5_linear_2_8795" x1="27.8299" y1="27.829" x2="8.97655" y2="8.97568" gradientUnits="userSpaceOnUse">
<stop stop-color="#833AB4" stop-opacity="0"/>
<stop offset="1" stop-color="#833AB4"/>
</linearGradient>
<linearGradient id="paint6_linear_2_8795" x1="29.2278" y1="16.422" x2="22.9934" y2="10.1875" gradientUnits="userSpaceOnUse">
<stop stop-color="#833AB4" stop-opacity="0"/>
<stop offset="1" stop-color="#833AB4"/>
</linearGradient>
<linearGradient id="paint7_linear_2_8795" x1="26.545" y1="11.5075" x2="11.1731" y2="26.8793" gradientUnits="userSpaceOnUse">
<stop stop-color="#833AB4"/>
<stop offset="0.0922" stop-color="#9C3495"/>
<stop offset="0.2927" stop-color="#DC2546"/>
<stop offset="0.392" stop-color="#FD1D1D"/>
<stop offset="0.5589" stop-color="#FC6831"/>
<stop offset="0.6887" stop-color="#FC9B40"/>
<stop offset="0.7521" stop-color="#FCAF45"/>
<stop offset="0.7806" stop-color="#FDB750"/>
<stop offset="0.8656" stop-color="#FECB6A"/>
<stop offset="0.9415" stop-color="#FFD87A"/>
<stop offset="1" stop-color="#FFDC80"/>
</linearGradient>
<clipPath id="clip0_2_8795">
<rect width="38" height="38" fill="white"/>
</clipPath>
</defs>
</svg>
