<svg width="41" height="41" viewBox="0 0 41 41" fill="none" xmlns="http://www.w3.org/2000/svg">
<path d="M28.7028 4.09346C30.8766 4.09995 32.9595 4.96635 34.4966 6.50344C36.0336 8.04053 36.9001 10.1234 36.9065 12.2972V28.7028C36.9001 30.8766 36.0336 32.9595 34.4966 34.4966C32.9595 36.0336 30.8766 36.9001 28.7028 36.9065H12.2972C10.1234 36.9001 8.04053 36.0336 6.50344 34.4966C4.96635 32.9595 4.09995 30.8766 4.09346 28.7028V12.2972C4.09995 10.1234 4.96635 8.04053 6.50344 6.50344C8.04053 4.96635 10.1234 4.09995 12.2972 4.09346H28.7028ZM28.7028 0.8125H12.2972C5.98047 0.8125 0.8125 5.98047 0.8125 12.2972V28.7028C0.8125 35.0195 5.98047 40.1875 12.2972 40.1875H28.7028C35.0195 40.1875 40.1875 35.0195 40.1875 28.7028V12.2972C40.1875 5.98047 35.0195 0.8125 28.7028 0.8125Z" fill="white"/>
<path d="M31.1638 12.2974C30.677 12.2974 30.2013 12.153 29.7966 11.8826C29.3919 11.6122 29.0764 11.2279 28.8902 10.7782C28.7039 10.3285 28.6552 9.8337 28.7501 9.35632C28.8451 8.87895 29.0795 8.44045 29.4236 8.09628C29.7678 7.75211 30.2063 7.51773 30.6837 7.42278C31.161 7.32782 31.6559 7.37655 32.1055 7.56282C32.5552 7.74908 32.9396 8.0645 33.21 8.4692C33.4804 8.8739 33.6247 9.3497 33.6247 9.83643C33.6254 10.1598 33.5622 10.4801 33.4388 10.779C33.3154 11.0779 33.1341 11.3495 32.9055 11.5781C32.6768 11.8068 32.4052 11.988 32.1064 12.1115C31.8075 12.2349 31.4871 12.2981 31.1638 12.2974ZM20.5 13.9374C21.798 13.9374 23.0669 14.3223 24.1461 15.0434C25.2253 15.7646 26.0665 16.7895 26.5632 17.9887C27.06 19.1879 27.1899 20.5075 26.9367 21.7805C26.6835 23.0536 26.0584 24.223 25.1406 25.1408C24.2228 26.0586 23.0534 26.6837 21.7803 26.9369C20.5073 27.1901 19.1877 27.0601 17.9885 26.5634C16.7893 26.0667 15.7644 25.2255 15.0432 24.1463C14.3221 23.067 13.9372 21.7982 13.9372 20.5002C13.9391 18.7602 14.6311 17.092 15.8615 15.8617C17.0918 14.6313 18.76 13.9393 20.5 13.9374ZM20.5 10.6564C18.5531 10.6564 16.6499 11.2338 15.0311 12.3154C13.4123 13.3971 12.1506 14.9344 11.4056 16.7332C10.6605 18.5319 10.4656 20.5111 10.8454 22.4206C11.2252 24.3301 12.1627 26.0841 13.5394 27.4608C14.9161 28.8375 16.6701 29.775 18.5796 30.1548C20.4891 30.5346 22.4683 30.3397 24.267 29.5946C26.0658 28.8496 27.6031 27.5879 28.6848 25.9691C29.7664 24.3503 30.3438 22.4471 30.3438 20.5002C30.3438 17.8895 29.3066 15.3857 27.4606 13.5396C25.6145 11.6936 23.1107 10.6564 20.5 10.6564Z" fill="white"/>
</svg>
