<svg width="19" height="19" viewBox="0 0 19 19" fill="none" xmlns="http://www.w3.org/2000/svg">
<path d="M11.5344 5.75281L3.48761 13.8196L3 15L4.18043 14.5124L12.2471 6.46545L11.5344 5.75281ZM13.1445 4.14301L12.7959 4.49135L13.5085 5.20399L13.8571 4.85536C13.9486 4.76381 14 4.63969 14 4.51027C14 4.38086 13.9486 4.25673 13.8571 4.16519L13.835 4.14301C13.7896 4.09767 13.7358 4.06171 13.6766 4.03717C13.6173 4.01263 13.5538 4 13.4897 4C13.4256 4 13.3621 4.01263 13.3029 4.03717C13.2437 4.06171 13.1898 4.09767 13.1445 4.14301Z" stroke="#D5DBE2" stroke-linecap="round" stroke-linejoin="round"/>
<path d="M7 15H14" stroke="#D5DBE2"/>
</svg>
