<svg width="19" height="19" viewBox="0 0 19 19" fill="none" xmlns="http://www.w3.org/2000/svg">
<path d="M15.0371 18.6875C14.2365 18.6875 13.1118 18.3979 11.4277 17.457C9.37982 16.3086 7.7958 15.2483 5.75896 13.2168C3.79514 11.2542 2.83947 9.98356 1.50195 7.54969C-0.00906191 4.80165 0.248516 3.36118 0.536446 2.74553C0.879336 2.00971 1.38547 1.56961 2.03967 1.1328C2.41125 0.889344 2.80447 0.680649 3.21436 0.509361C3.25537 0.491724 3.29352 0.474908 3.32756 0.459732C3.53059 0.368267 3.8382 0.230044 4.22785 0.377701C4.48789 0.475318 4.72004 0.675064 5.08344 1.03395C5.82869 1.76895 6.84711 3.40588 7.22281 4.20979C7.47506 4.75161 7.64199 5.10926 7.6424 5.5104C7.6424 5.98002 7.40615 6.34219 7.11945 6.73307C7.06572 6.80649 7.0124 6.87663 6.96072 6.94471C6.64859 7.35487 6.5801 7.4734 6.62522 7.68504C6.71668 8.11038 7.39877 9.37653 8.51973 10.495C9.64068 11.6135 10.8703 12.2525 11.2973 12.3436C11.518 12.3908 11.639 12.3194 12.0622 11.9962C12.1229 11.9498 12.1853 11.9019 12.2505 11.8539C12.6877 11.5286 13.0331 11.2985 13.4916 11.2985H13.4941C13.8932 11.2985 14.2348 11.4716 14.8009 11.7571C15.5391 12.1295 17.2253 13.1348 17.9648 13.8809C18.3245 14.2434 18.5251 14.4748 18.6231 14.7344C18.7708 15.1253 18.6317 15.4317 18.5411 15.6367C18.5259 15.6708 18.5091 15.7081 18.4914 15.7495C18.3188 16.1587 18.1089 16.5511 17.8643 16.9218C17.4283 17.5739 16.9866 18.0788 16.2491 18.4221C15.8704 18.6012 15.456 18.692 15.0371 18.6875Z" fill="white"/>
</svg>
