<svg width="15" height="15" viewBox="0 0 15 15" fill="none" xmlns="http://www.w3.org/2000/svg">
<path d="M11.455 14.0625C10.8831 14.0625 10.0798 13.8556 8.87688 13.1836C7.41409 12.3633 6.28265 11.6059 4.82776 10.1549C3.42503 8.753 2.74241 7.84538 1.78704 6.10691C0.707743 4.14402 0.891727 3.11511 1.09739 2.67536C1.34231 2.14978 1.70384 1.83542 2.17112 1.52341C2.43654 1.34951 2.71741 1.20045 3.01018 1.0781C3.03948 1.0655 3.06673 1.05349 3.09104 1.04265C3.23606 0.977316 3.45579 0.878586 3.73411 0.984054C3.91985 1.05378 4.08567 1.19646 4.34524 1.4528C4.87757 1.9778 5.60501 3.14704 5.87337 3.72126C6.05354 4.10827 6.17278 4.36374 6.17308 4.65027C6.17308 4.98571 6.00433 5.24441 5.79954 5.5236C5.76116 5.57605 5.72308 5.62614 5.68616 5.67478C5.46321 5.96775 5.41429 6.05241 5.44651 6.20359C5.51185 6.50739 5.99905 7.41179 6.79974 8.21071C7.60042 9.00964 8.47874 9.46609 8.78372 9.53112C8.94134 9.56482 9.02776 9.51384 9.33011 9.28298C9.37347 9.24987 9.418 9.2156 9.46458 9.18132C9.77688 8.949 10.0236 8.78464 10.3511 8.78464H10.3529C10.6379 8.78464 10.882 8.90827 11.2863 9.11218C11.8136 9.37819 13.018 10.0963 13.5462 10.6292C13.8032 10.8882 13.9464 11.0534 14.0164 11.2388C14.1219 11.518 14.0226 11.7369 13.9578 11.8834C13.947 11.9077 13.935 11.9343 13.9224 11.9639C13.7991 12.2562 13.6491 12.5365 13.4744 12.8012C13.163 13.2671 12.8475 13.6277 12.3207 13.8729C12.0502 14.0009 11.7542 14.0657 11.455 14.0625Z" fill="#D5DBE2"/>
</svg>
