<svg width="37" height="38" viewBox="0 0 37 38" fill="none" xmlns="http://www.w3.org/2000/svg">
<path d="M18.5 37.0264C28.7197 37.0264 37 28.7461 37 18.5264C37 8.30666 28.7197 0.0263672 18.5 0.0263672C8.28029 0.0263672 0 8.30666 0 18.5264C0 28.7461 8.28029 37.0264 18.5 37.0264ZM8.46529 18.1255L26.3024 11.2482C27.1303 10.9491 27.8533 11.4501 27.585 12.702L27.5866 12.7004L24.5495 27.0086C24.3244 28.023 23.7216 28.2697 22.8783 27.7918L18.2533 24.3832L16.0225 26.5322C15.7759 26.7789 15.5677 26.987 15.0898 26.987L15.4182 22.2803L23.9899 14.5365C24.363 14.2082 23.9066 14.0232 23.4148 14.35L12.822 21.0192L8.25562 19.5947C7.26433 19.2802 7.24275 18.6035 8.46529 18.1255Z" fill="white"/>
<path d="M8.46529 18.1255L26.3024 11.2482C27.1303 10.9491 27.8533 11.4501 27.585 12.702L27.5866 12.7004L24.5495 27.0086C24.3244 28.023 23.7216 28.2697 22.8783 27.7918L18.2533 24.3832L16.0225 26.5322C15.7759 26.7789 15.5677 26.987 15.0898 26.987L15.4182 22.2803L23.9899 14.5365C24.363 14.2082 23.9066 14.0232 23.4148 14.35L12.822 21.0192L8.25562 19.5947C7.26433 19.2802 7.24275 18.6035 8.46529 18.1255Z" fill="white"/>
<path d="M18.5 37.0264C28.7197 37.0264 37 28.7461 37 18.5264C37 8.30666 28.7197 0.0263672 18.5 0.0263672C8.28029 0.0263672 0 8.30666 0 18.5264C0 28.7461 8.28029 37.0264 18.5 37.0264ZM8.46529 18.1255L26.3024 11.2482C27.1303 10.9491 27.8533 11.4501 27.585 12.702L27.5866 12.7004L24.5495 27.0086C24.3244 28.023 23.7216 28.2697 22.8783 27.7918L18.2533 24.3832L16.0225 26.5322C15.7759 26.7789 15.5677 26.987 15.0898 26.987L15.4182 22.2803L23.9899 14.5365C24.363 14.2082 23.9066 14.0232 23.4148 14.35L12.822 21.0192L8.25562 19.5947C7.26433 19.2802 7.24275 18.6035 8.46529 18.1255Z" fill="#039BE5"/>
</svg>
