<svg width="20" height="19" viewBox="0 0 20 19" fill="none" xmlns="http://www.w3.org/2000/svg">
<path d="M10.368 18.9677C15.5914 18.9677 19.8236 14.7356 19.8236 9.51219C19.8236 4.28879 15.5914 0.0566406 10.368 0.0566406C5.14462 0.0566406 0.912476 4.28879 0.912476 9.51219C0.912476 14.7356 5.14462 18.9677 10.368 18.9677ZM5.23918 9.30732L14.3559 5.79222C14.779 5.63936 15.1486 5.89545 15.0115 6.53527L15.0123 6.53448L13.46 13.8476C13.345 14.366 13.0369 14.4921 12.6058 14.2479L10.242 12.5057L9.10177 13.6041C8.9757 13.7302 8.86932 13.8365 8.62505 13.8365L8.79289 11.4309L13.174 7.47295C13.3647 7.30511 13.1314 7.21056 12.8801 7.3776L7.46596 10.7863L5.13202 10.0583C4.62536 9.89751 4.61432 9.55159 5.23918 9.30732Z" fill="white"/>
<path d="M5.23918 9.30732L14.3559 5.79222C14.779 5.63936 15.1486 5.89545 15.0115 6.53527L15.0123 6.53448L13.46 13.8476C13.345 14.366 13.0369 14.4921 12.6058 14.2479L10.242 12.5057L9.10177 13.6041C8.9757 13.7302 8.86932 13.8365 8.62505 13.8365L8.79289 11.4309L13.174 7.47295C13.3647 7.30511 13.1314 7.21056 12.8801 7.3776L7.46596 10.7863L5.13202 10.0583C4.62536 9.89751 4.61432 9.55159 5.23918 9.30732Z" fill="white"/>
<path d="M10.3678 18.9677C15.5913 18.9677 19.8234 14.7356 19.8234 9.51219C19.8234 4.28879 15.5913 0.0566406 10.3678 0.0566406C5.14444 0.0566406 0.912292 4.28879 0.912292 9.51219C0.912292 14.7356 5.14444 18.9677 10.3678 18.9677ZM5.239 9.30732L14.3557 5.79222C14.7789 5.63936 15.1484 5.89545 15.0113 6.53527L15.0121 6.53448L13.4598 13.8476C13.3448 14.366 13.0367 14.4921 12.6057 14.2479L10.2418 12.5057L9.10159 13.6041C8.97552 13.7302 8.86914 13.8365 8.62487 13.8365L8.79271 11.4309L13.1738 7.47295C13.3645 7.30511 13.1312 7.21056 12.8799 7.3776L7.46578 10.7863L5.13183 10.0583C4.62517 9.89751 4.61414 9.55159 5.239 9.30732Z" fill="#039BE5"/>
</svg>
