<svg width="15" height="15" viewBox="0 0 15 15" fill="none" xmlns="http://www.w3.org/2000/svg">
<path d="M9.74536 1.89199C9.17524 1.27646 8.37895 0.9375 7.50005 0.9375C6.61645 0.9375 5.81753 1.27441 5.25005 1.88613C4.67641 2.50459 4.39692 3.34512 4.46255 4.25273C4.59262 6.04336 5.95522 7.5 7.50005 7.5C9.04487 7.5 10.4051 6.04365 10.5373 4.25332C10.6038 3.35391 10.3225 2.51514 9.74536 1.89199ZM12.6563 14.0625H2.3438C2.20881 14.0643 2.07514 14.0359 1.9525 13.9795C1.82985 13.9231 1.72133 13.8401 1.63481 13.7364C1.44438 13.5088 1.36762 13.1979 1.42446 12.8836C1.67173 11.5119 2.44341 10.3597 3.6563 9.55078C4.73383 8.83272 6.09878 8.4375 7.50005 8.4375C8.90132 8.4375 10.2663 8.83301 11.3438 9.55078C12.5567 10.3594 13.3284 11.5116 13.5756 12.8833C13.6325 13.1977 13.5557 13.5085 13.3653 13.7361C13.2788 13.8398 13.1703 13.9229 13.0476 13.9794C12.925 14.0358 12.7913 14.0642 12.6563 14.0625Z" fill="#D5DBE2"/>
</svg>
