<svg width="35" height="37" viewBox="0 0 35 37" fill="none" xmlns="http://www.w3.org/2000/svg">
<path d="M31.0549 22.8657C30.4986 25.1205 27.6461 27.9238 25.3798 28.4417C22.4128 29.0206 19.4223 29.268 16.4348 29.1831C16.3754 29.1815 16.3183 29.2051 16.2768 29.2487L13.495 32.1786L10.5362 35.2943C10.3198 35.5257 9.93981 35.3683 9.93981 35.0489V28.6576C9.93981 28.552 9.86633 28.4623 9.76525 28.4419L9.76354 28.4416C7.49717 27.9237 4.64588 25.1204 4.08845 22.8655C3.1613 18.5027 3.1613 14.0799 4.08845 9.71698C4.64588 7.46214 7.49717 4.65885 9.76354 4.14094C14.9453 3.12979 20.1992 3.12979 25.3798 4.14094C27.6473 4.65885 30.4986 7.46214 31.0549 9.71698C31.983 14.08 31.983 18.5028 31.0549 22.8657Z" fill="#7D3DAF"/>
<path fill-rule="evenodd" clip-rule="evenodd" d="M34.0698 9.01716L34.0595 8.97488C33.2262 5.51863 29.4695 1.80988 26.0196 1.0383L25.9807 1.03008C20.4006 -0.06211 14.7427 -0.06211 9.16375 1.03008L9.12369 1.0383C5.67491 1.80988 1.91822 5.51863 1.08379 8.97488L1.07463 9.01716C0.0444595 13.8439 0.0444595 18.7388 1.07463 23.5656L1.08379 23.6079C1.88263 26.9166 5.35956 30.455 8.68072 31.4281V35.2862C8.68072 36.6826 10.3393 37.3684 11.2825 36.3608L15.0924 32.2975C15.9187 32.3449 16.7455 32.3714 17.5722 32.3714C20.3812 32.3714 23.1912 32.0989 25.9807 31.5528L26.0196 31.5446C29.4695 30.773 33.2262 27.0642 34.0595 23.608L34.0698 23.5657C35.1 18.7388 35.1 13.8439 34.0698 9.01716ZM25.3798 28.4417C27.6461 27.9238 30.4986 25.1205 31.0549 22.8657C31.983 18.5028 31.983 14.08 31.0549 9.71698C30.4986 7.46214 27.6473 4.65885 25.3798 4.14094C20.1992 3.12979 14.9453 3.12979 9.76354 4.14094C7.49717 4.65885 4.64588 7.46214 4.08845 9.71698C3.1613 14.0799 3.1613 18.5027 4.08845 22.8655C4.64588 25.1204 7.49717 27.9237 9.76354 28.4416L9.76525 28.4419C9.86633 28.4623 9.93981 28.552 9.93981 28.6576V35.0489C9.93981 35.3683 10.3198 35.5257 10.5362 35.2943L13.495 32.1786L16.2768 29.2487C16.3183 29.2051 16.3754 29.1815 16.4348 29.1831C19.4223 29.268 22.4128 29.0206 25.3798 28.4417Z" fill="#7D3DAF"/>
<path d="M22.5028 26.1126C22.1544 26.0029 21.8223 25.9291 21.514 25.7963C18.3186 24.4203 15.3778 22.6452 13.0484 19.9241C11.7237 18.3767 10.6869 16.6297 9.81042 14.781C9.39481 13.9042 9.04455 12.9932 8.68754 12.088C8.36201 11.2626 8.84149 10.4098 9.34639 9.78792C9.82015 9.20426 10.4298 8.75757 11.09 8.42837C11.6053 8.17141 12.1137 8.31955 12.49 8.77289C13.3036 9.75299 14.0509 10.7832 14.6561 11.9193C15.0282 12.6181 14.9261 13.4723 14.2517 13.9478C14.0878 14.0634 13.9384 14.1991 13.7857 14.3297C13.6518 14.4441 13.5258 14.5597 13.434 14.7146C13.2662 14.998 13.2582 15.3323 13.3662 15.6405C14.1979 18.0127 15.5997 19.8573 17.9002 20.8508C18.2683 21.0098 18.6381 21.1949 19.0621 21.1436C19.7724 21.0574 20.0023 20.2489 20.5 19.8264C20.9865 19.4136 21.6082 19.4081 22.1322 19.7523C22.6563 20.0966 23.1644 20.4662 23.6694 20.8397C24.1652 21.2063 24.6587 21.5649 25.116 21.9829C25.5557 22.3848 25.7071 22.912 25.4595 23.4574C25.0062 24.4563 24.3467 25.2873 23.3953 25.8178C23.1266 25.9673 22.8058 26.0158 22.5028 26.1126Z" fill="white"/>
<path d="M17.5806 7.28696C21.7602 7.40849 25.1931 10.2874 25.9287 14.5761C26.0541 15.3068 26.0987 16.054 26.1544 16.7956C26.1779 17.1076 26.0077 17.404 25.6833 17.4081C25.3483 17.4122 25.1975 17.1213 25.1758 16.8094C25.1327 16.1921 25.1029 15.5721 25.0209 14.9599C24.5882 11.7284 22.1055 9.05495 19.0064 8.48126C18.5401 8.3949 18.0628 8.3722 17.5904 8.32076C17.2918 8.28821 16.9007 8.26944 16.8345 7.88417C16.779 7.56115 17.0417 7.30395 17.338 7.28744C17.4186 7.2828 17.4996 7.2866 17.5806 7.28696Z" fill="white"/>
<path d="M23.9335 15.8324C23.9266 15.8866 23.9229 16.0139 23.8924 16.1339C23.7815 16.5694 23.1453 16.624 22.9988 16.1844C22.9554 16.054 22.9488 15.9056 22.9486 15.7652C22.9471 14.8464 22.7547 13.9285 22.3083 13.1291C21.8494 12.3075 21.1483 11.6168 20.326 11.1988C19.8288 10.9461 19.2911 10.7891 18.7461 10.6955C18.5079 10.6546 18.2672 10.6298 18.0278 10.5952C17.7378 10.5534 17.5829 10.3615 17.5967 10.0649C17.6095 9.78688 17.8052 9.58694 18.0971 9.60405C19.0563 9.6606 19.9828 9.87575 20.8355 10.3444C22.5696 11.2976 23.5602 12.802 23.8493 14.811C23.8624 14.902 23.8834 14.9921 23.8901 15.0835C23.9064 15.3091 23.9167 15.5349 23.9335 15.8324C23.9266 15.8866 23.9167 15.5349 23.9335 15.8324Z" fill="white"/>
<path d="M21.333 15.7278C20.9833 15.7344 20.7962 15.5335 20.7601 15.2007C20.735 14.9687 20.7152 14.7336 20.6619 14.5079C20.5568 14.0633 20.3292 13.6513 19.9688 13.3789C19.7987 13.2503 19.606 13.1565 19.4041 13.096C19.1476 13.0192 18.8812 13.0403 18.6253 12.9752C18.3473 12.9045 18.1936 12.671 18.2373 12.4004C18.2771 12.1541 18.5079 11.9619 18.7672 11.9813C20.3876 12.1028 21.5458 12.9723 21.7111 14.9522C21.7227 15.0919 21.7365 15.2396 21.7066 15.3732C21.6554 15.602 21.4922 15.7167 21.333 15.7278C20.9833 15.7344 21.4922 15.7167 21.333 15.7278Z" fill="white"/>
</svg>
