<svg width="49" height="29" viewBox="0 0 49 29" fill="none" xmlns="http://www.w3.org/2000/svg">
<path fill-rule="evenodd" clip-rule="evenodd" d="M47.2807 2.14844C47.6353 1.02484 47.2807 0.208047 45.7118 0.208047H40.4953C39.1794 0.208047 38.5718 0.923242 38.2172 1.68824C38.2172 1.68824 35.5337 8.22262 31.7864 12.459C30.5712 13.6842 30.0144 14.0926 29.356 14.0926C29.0013 14.0926 28.5451 13.6842 28.5451 12.5616V2.09564C28.5451 0.768848 28.1407 0.15625 27.0261 0.15625H18.8223C18.0114 0.15625 17.5054 0.768848 17.5054 1.38145C17.5054 2.65744 19.3791 2.96424 19.5813 6.53723V14.3008C19.5813 15.9852 19.2825 16.293 18.6191 16.293C16.847 16.293 12.5429 9.70779 9.96102 2.20422C9.45899 0.718047 8.94899 0.15625 7.63215 0.15625H2.3658C0.846758 0.15625 0.59375 0.870449 0.59375 1.63645C0.59375 3.01504 2.3658 9.95682 8.84738 19.1448C13.1515 25.4202 19.2785 28.7929 24.7978 28.7929C28.1407 28.7929 28.5451 28.027 28.5451 26.751V22.0036C28.5451 20.4726 28.8489 20.2176 29.9128 20.2176C30.6718 20.2176 32.0394 20.625 35.1283 23.6372C38.6724 27.2102 39.28 28.8438 41.2553 28.8438H46.4708C47.9899 28.8438 48.6991 28.0778 48.2937 26.5976C47.8385 25.1174 46.1162 22.9738 43.888 20.4218C42.6727 18.9934 40.8499 17.4106 40.2931 16.6446C39.534 15.6236 39.7363 15.2152 40.2931 14.2968C40.2423 14.2968 46.6232 5.21043 47.2807 2.14445" fill="white"/>
</svg>
