<svg width="36" height="36" viewBox="0 0 36 36" fill="none" xmlns="http://www.w3.org/2000/svg">
<path d="M18 36C27.9411 36 36 27.9411 36 18C36 8.05888 27.9411 0 18 0C8.05888 0 0 8.05888 0 18C0 27.9411 8.05888 36 18 36Z" fill="#4D76A1"/>
<path fill-rule="evenodd" clip-rule="evenodd" d="M17.3201 25.8945H18.7329C18.7329 25.8945 19.1596 25.8476 19.3775 25.6127C19.578 25.3971 19.5716 24.9922 19.5716 24.9922C19.5716 24.9922 19.544 23.0965 20.4238 22.8173C21.2912 22.5424 22.4049 24.6495 23.5854 25.4597C24.478 26.0729 25.1563 25.9384 25.1563 25.9384L28.3127 25.8945C28.3127 25.8945 29.9639 25.7927 29.181 24.4945C29.1168 24.3883 28.725 23.5342 26.8341 21.779C24.855 19.9421 25.1201 20.2392 27.5041 17.0616C28.956 15.1265 29.5365 13.9451 29.3552 13.439C29.1822 12.9571 28.1144 13.0845 28.1144 13.0845L24.5605 13.1066C24.5605 13.1066 24.297 13.0707 24.1016 13.1875C23.9107 13.302 23.7878 13.569 23.7878 13.569C23.7878 13.569 23.2253 15.0665 22.4752 16.34C20.8926 19.0273 20.2599 19.1691 20.0013 19.0022C19.3996 18.6133 19.5498 17.4399 19.5498 16.6063C19.5498 14.0022 19.9448 12.9164 18.7807 12.6353C18.3944 12.5419 18.1101 12.4803 17.1221 12.4703C15.8541 12.4572 14.7808 12.4742 14.173 12.772C13.7687 12.9699 13.4569 13.4111 13.6468 13.4365C13.8817 13.4679 14.4137 13.5799 14.6957 13.964C15.0599 14.4594 15.0471 15.5722 15.0471 15.5722C15.0471 15.5722 15.2563 18.6377 14.5584 19.0186C14.0793 19.2798 13.4222 18.7465 12.0114 16.3086C11.2884 15.0597 10.7426 13.6794 10.7426 13.6794C10.7426 13.6794 10.6374 13.4214 10.4497 13.2834C10.2219 13.1163 9.90358 13.063 9.90358 13.063L6.52646 13.0851C6.52646 13.0851 6.01949 13.0992 5.83338 13.3197C5.66782 13.5157 5.82023 13.9213 5.82023 13.9213C5.82023 13.9213 8.46417 20.107 11.4579 23.2242C14.2029 26.0822 17.3201 25.8945 17.3201 25.8945Z" fill="white"/>
</svg>
