<svg width="35" height="35" viewBox="0 0 35 35" fill="none" xmlns="http://www.w3.org/2000/svg">
<path d="M17.2745 0H17.2659C7.74354 0 0 7.7457 0 17.2702C0 21.0481 1.21755 24.5496 3.28782 27.3927L1.13552 33.8086L7.77376 31.6865C10.5046 33.4956 13.7622 34.5405 17.2745 34.5405C26.7969 34.5405 34.5405 26.7926 34.5405 17.2702C34.5405 7.74786 26.7969 0 17.2745 0Z" fill="#4CAF50"/>
<path d="M27.3241 24.3882C26.9075 25.5647 25.2539 26.5405 23.9348 26.8254C23.0325 27.0175 21.8538 27.1708 17.8859 25.5258C12.8107 23.4232 9.54227 18.2659 9.28753 17.9312C9.04359 17.5966 7.23669 15.2004 7.23669 12.7221C7.23669 10.2438 8.49526 9.03709 9.00258 8.51898C9.41922 8.0937 10.1079 7.89941 10.7685 7.89941C10.9822 7.89941 11.1743 7.91021 11.347 7.91884C11.8543 7.94043 12.1091 7.97065 12.4437 8.77156C12.8603 9.77539 13.8749 12.2537 13.9958 12.5084C14.1189 12.7631 14.2419 13.1085 14.0692 13.4432C13.9073 13.7886 13.7648 13.9418 13.5101 14.2354C13.2554 14.529 13.0136 14.7535 12.7588 15.0687C12.5257 15.3429 12.2623 15.6365 12.5559 16.1438C12.8495 16.6403 13.8641 18.2961 15.358 19.6259C17.2858 21.3421 18.8488 21.8904 19.4079 22.1236C19.8245 22.2963 20.321 22.2553 20.6254 21.9315C21.0119 21.5148 21.4889 20.824 21.9747 20.144C22.3201 19.6561 22.7562 19.5957 23.2138 19.7684C23.6801 19.9303 26.1476 21.15 26.6549 21.4026C27.1622 21.6573 27.4968 21.7782 27.6199 21.9919C27.7408 22.2056 27.7408 23.2095 27.3241 24.3882Z" fill="#FAFAFA"/>
</svg>
