<svg width="22" height="24" viewBox="0 0 22 24" fill="none" xmlns="http://www.w3.org/2000/svg">
<path d="M19.3437 15.1053C18.994 16.5228 17.2008 18.2851 15.7761 18.6107C13.9109 18.9746 12.0309 19.1302 10.1528 19.0768C10.1155 19.0758 10.0796 19.0906 10.0535 19.1181L8.30477 20.9599L6.44468 22.9186C6.30868 23.064 6.06978 22.9651 6.06978 22.7643V18.7464C6.06978 18.68 6.02358 18.6236 5.96004 18.6109L5.95897 18.6106C4.53421 18.2851 2.74176 16.5228 2.39133 15.1053C1.80848 12.3626 1.80848 9.58218 2.39133 6.83946C2.74176 5.42195 4.53421 3.65967 5.95897 3.33409C9.21646 2.69843 12.5193 2.69843 15.7761 3.33409C17.2015 3.65967 18.994 5.42195 19.3437 6.83946C19.9272 9.58225 19.9272 12.3626 19.3437 15.1053Z" fill="#7D3DAF"/>
<path fill-rule="evenodd" clip-rule="evenodd" d="M21.2391 6.39951L21.2326 6.37294C20.7087 4.20017 18.3471 1.86867 16.1783 1.38362L16.1538 1.37845C12.6459 0.691852 9.0891 0.691852 5.58191 1.37845L5.55672 1.38362C3.38866 1.86867 1.02702 4.20017 0.502457 6.37294L0.496701 6.39951C-0.150913 9.43386 -0.150913 12.511 0.496701 15.5454L0.502457 15.5719C1.00465 17.652 3.19042 19.8763 5.27825 20.4881V22.9135C5.27825 23.7913 6.32091 24.2225 6.91384 23.589L9.30893 21.0346C9.82839 21.0645 10.3481 21.0811 10.8679 21.0811C12.6337 21.0811 14.4003 20.9098 16.1538 20.5665L16.1783 20.5613C18.3471 20.0763 20.7087 17.7448 21.2326 15.572L21.2391 15.5454C21.8867 12.511 21.8867 9.43386 21.2391 6.39951ZM15.7761 18.6107C17.2008 18.2851 18.994 16.5228 19.3437 15.1053C19.9272 12.3626 19.9272 9.58225 19.3437 6.83946C18.994 5.42195 17.2015 3.65967 15.7761 3.33409C12.5193 2.69843 9.21646 2.69843 5.95897 3.33409C4.53421 3.65967 2.74176 5.42195 2.39133 6.83946C1.80848 9.58218 1.80848 12.3626 2.39133 15.1053C2.74176 16.5228 4.53421 18.2851 5.95897 18.6106L5.96004 18.6109C6.02358 18.6236 6.06978 18.68 6.06978 18.7464V22.7643C6.06978 22.9651 6.30868 23.064 6.44468 22.9186L8.30477 20.9599L10.0535 19.1181C10.0796 19.0906 10.1155 19.0758 10.1528 19.0768C12.0309 19.1302 13.9109 18.9746 15.7761 18.6107Z" fill="#7D3DAF"/>
<path d="M13.9674 17.1466C13.7484 17.0776 13.5397 17.0312 13.3458 16.9477C11.3371 16.0827 9.48833 14.9668 8.02393 13.2561C7.19117 12.2834 6.53938 11.1852 5.98841 10.0229C5.72713 9.47178 5.50694 8.89903 5.28251 8.33002C5.07786 7.81112 5.37929 7.27504 5.69669 6.88407C5.99452 6.51715 6.37777 6.23634 6.79282 6.02939C7.11677 5.86785 7.43633 5.96098 7.67292 6.24598C8.1844 6.86212 8.6542 7.50977 9.03464 8.22397C9.26857 8.66326 9.20439 9.20023 8.78042 9.49919C8.67737 9.57186 8.58347 9.65715 8.48748 9.73922C8.40329 9.81114 8.32406 9.88381 8.26635 9.9812C8.16086 10.1594 8.15583 10.3696 8.22376 10.5633C8.7466 12.0546 9.62786 13.2142 11.074 13.8388C11.3055 13.9387 11.5379 14.055 11.8045 14.0228C12.251 13.9686 12.3955 13.4603 12.7084 13.1948C13.0142 12.9352 13.405 12.9318 13.7344 13.1482C14.0639 13.3646 14.3834 13.5969 14.7008 13.8317C15.0125 14.0622 15.3228 14.2877 15.6102 14.5504C15.8866 14.8031 15.9818 15.1345 15.8262 15.4774C15.5412 16.1053 15.1266 16.6277 14.5285 16.9612C14.3596 17.0552 14.1579 17.0857 13.9674 17.1466Z" fill="white"/>
<path d="M10.8731 5.31161C13.5006 5.38801 15.6587 7.19782 16.1211 9.89391C16.1999 10.3533 16.228 10.823 16.263 11.2892C16.2778 11.4853 16.1708 11.6717 15.9669 11.6742C15.7562 11.6768 15.6615 11.4939 15.6478 11.2979C15.6207 10.9098 15.602 10.5201 15.5504 10.1352C15.2784 8.10374 13.7177 6.42306 11.7694 6.06241C11.4763 6.00811 11.1762 5.99385 10.8793 5.96151C10.6915 5.94105 10.4456 5.92925 10.4041 5.68705C10.3692 5.48398 10.5343 5.32229 10.7206 5.31191C10.7713 5.309 10.8222 5.31139 10.8731 5.31161Z" fill="white"/>
<path d="M14.8668 10.6837C14.8625 10.7177 14.8602 10.7978 14.841 10.8732C14.7713 11.147 14.3713 11.1813 14.2792 10.905C14.252 10.823 14.2479 10.7297 14.2477 10.6414C14.2468 10.0638 14.1258 9.48681 13.8452 8.98426C13.5567 8.46775 13.116 8.03354 12.599 7.7708C12.2865 7.61195 11.9484 7.51322 11.6058 7.45437C11.4561 7.42868 11.3047 7.41307 11.1543 7.39134C10.9719 7.36505 10.8746 7.24443 10.8832 7.05795C10.8913 6.88319 11.0143 6.7575 11.1978 6.76825C11.8008 6.8038 12.3832 6.93905 12.9193 7.23368C14.0095 7.83287 14.6322 8.77866 14.8139 10.0416C14.8221 10.0988 14.8354 10.1555 14.8396 10.2129C14.8498 10.3547 14.8563 10.4967 14.8668 10.6837C14.8563 10.4967 14.8625 10.7177 14.8668 10.6837Z" fill="white"/>
<path d="M13.2321 10.618C13.0123 10.6221 12.8946 10.4958 12.872 10.2866C12.8562 10.1407 12.8438 9.99292 12.8102 9.85103C12.7442 9.57156 12.601 9.31256 12.3745 9.14131C12.2676 9.06042 12.1464 9.0015 12.0195 8.96348C11.8582 8.91516 11.6908 8.92846 11.5299 8.88753C11.3552 8.84309 11.2585 8.69627 11.286 8.52614C11.311 8.37132 11.4561 8.25048 11.6191 8.26273C12.6378 8.33905 13.3659 8.88566 13.4698 10.1303C13.4771 10.2182 13.4857 10.311 13.467 10.395C13.4348 10.5389 13.3322 10.6109 13.2321 10.618C13.3322 10.6109 13.0123 10.6221 13.2321 10.618Z" fill="white"/>
</svg>
