<svg width="24" height="24" viewBox="0 0 24 24" fill="none" xmlns="http://www.w3.org/2000/svg">
<path d="M11.6942 23.2711C18.0345 23.2711 23.1715 18.134 23.1715 11.7938C23.1715 5.45356 18.0345 0.316525 11.6942 0.316525C5.354 0.316525 0.216957 5.45356 0.216957 11.7938C0.216957 18.134 5.354 23.2711 11.6942 23.2711ZM5.46877 11.5451L16.5348 7.27845C17.0484 7.0929 17.497 7.40374 17.3305 8.18037L17.3315 8.17942L15.4473 17.0561C15.3077 17.6855 14.9337 17.8385 14.4105 17.542L11.5412 15.4273L10.1572 16.7606C10.0042 16.9136 9.87509 17.0427 9.57859 17.0427L9.78231 14.1227L15.1001 9.31854C15.3316 9.11482 15.0485 9.00004 14.7434 9.20281L8.17167 13.3404L5.33869 12.4566C4.7237 12.2615 4.71031 11.8416 5.46877 11.5451Z" fill="#039BE5"/>
</svg>
