<svg width="43" height="44" viewBox="0 0 43 44" fill="none" xmlns="http://www.w3.org/2000/svg">
<g clip-path="url(#clip0_2_4807)">
<path d="M42.0813 8.24362C41.6916 4.59236 38.808 1.70807 35.1564 1.3187C25.9991 0.341377 16.8151 0.341377 7.65824 1.3187C4.00665 1.70839 1.12269 4.59236 0.732996 8.24362C-0.244332 17.4005 -0.244332 26.5849 0.732996 35.7418C1.12269 39.3933 4.00665 42.2773 7.65791 42.667C16.8148 43.6443 25.9991 43.6443 35.1564 42.667C38.808 42.2773 41.6916 39.3933 42.0813 35.7418C43.0586 26.5849 43.0586 17.4008 42.0813 8.24362Z" fill="url(#paint0_radial_2_4807)"/>
<path d="M39.7525 9.79247C39.4069 6.55246 36.8479 3.99318 33.6076 3.64726C25.4819 2.78034 17.3321 2.78034 9.20641 3.64726C5.9664 3.99318 3.40712 6.55246 3.0612 9.79247C2.19428 17.9181 2.19428 26.068 3.0612 34.1933C3.40712 37.4337 5.9664 39.993 9.20641 40.3386C17.3321 41.2058 25.4819 41.2058 33.6073 40.3386C36.8476 39.993 39.4069 37.4337 39.7525 34.1933C40.6197 26.068 40.6197 17.9181 39.7525 9.79247Z" fill="url(#paint1_linear_2_4807)"/>
<path d="M0.641678 34.8543C0.671076 35.1502 0.701454 35.4462 0.733139 35.7421C1.12283 39.3934 4.0068 42.2773 7.65838 42.667C16.8153 43.6443 25.9996 43.6443 35.1565 42.667C38.8081 42.2773 41.6917 39.3934 42.0814 35.7421C42.1131 35.4462 42.1435 35.1502 42.1732 34.8543H0.641678Z" fill="url(#paint2_linear_2_4807)"/>
<path d="M42.0814 35.7418C42.6066 30.8215 42.849 25.8934 42.8098 20.9659L33.0234 11.1796C31.8008 9.78384 30.015 8.91267 27.9166 8.83722C23.6013 8.68173 19.2723 8.68957 14.9563 8.83787C11.3716 8.96134 8.86495 11.3707 8.22211 14.9119C8.10876 15.5371 8.04082 16.1704 7.95164 16.8002V27.1817C8.00097 27.5182 8.07348 27.853 8.09602 28.1914C8.23975 30.3453 9.12496 32.1902 10.5423 33.4383L20.5011 43.3968C25.3884 43.4311 30.276 43.1881 35.1564 42.6671C38.808 42.2774 41.6917 39.3934 42.0814 35.7418Z" fill="url(#paint3_linear_2_4807)"/>
<path d="M42.0816 35.7419C41.6923 39.3928 38.8077 42.2775 35.1567 42.6668C30.2769 43.1875 25.3884 43.4309 20.5017 43.3966L10.5579 33.4528C11.7107 34.4618 13.2132 35.0762 14.9569 35.1419C19.2719 35.3039 23.6019 35.2996 27.9169 35.1441C31.8197 35.003 34.6439 32.1145 34.7657 28.2117C34.8957 24.0679 34.8957 19.9132 34.7657 15.7694C34.7102 13.9689 34.0781 12.3847 33.0303 11.1859L42.8104 20.966C42.8489 25.8928 42.6066 30.8216 42.0816 35.7419Z" fill="url(#paint4_linear_2_4807)"/>
<path d="M26.4595 17.3566C25.2058 15.9915 23.407 15.1351 21.4076 15.1351C17.6204 15.1351 14.5499 18.2056 14.5499 21.9927C14.5499 23.9921 15.4064 25.791 16.7715 27.0446L32.6377 42.9109C33.4775 42.8377 34.3173 42.7563 35.1565 42.6668C38.8081 42.2772 41.692 39.3932 42.0817 35.7416C42.1712 34.9024 42.2526 34.0626 42.3257 33.2228L26.4595 17.3566Z" fill="url(#paint5_linear_2_4807)"/>
<path d="M42.7313 26.6046L29.962 13.8357C29.6641 13.4447 29.1947 13.1909 28.6652 13.1909C27.7644 13.1909 27.0336 13.9213 27.0336 14.8225C27.0336 15.352 27.2875 15.8214 27.6784 16.1193L42.503 30.9441C42.6036 29.4981 42.6797 28.0513 42.7313 26.6046Z" fill="url(#paint6_linear_2_4807)"/>
<path d="M7.95164 16.8002C8.04082 16.1704 8.10876 15.5371 8.22211 14.9119C8.86462 11.3707 11.3716 8.96134 14.9563 8.83787C19.2723 8.68957 23.6013 8.68173 27.9166 8.83722C31.8181 8.97767 34.6436 11.8665 34.7655 15.7693C34.8951 19.9135 34.8951 24.0678 34.7655 28.212C34.6436 32.1147 31.8191 35.0033 27.917 35.1441C23.6016 35.2999 19.2716 35.3038 14.9566 35.1418C11.0545 34.9951 8.35701 32.0997 8.09602 28.1911C8.07348 27.853 8.00097 27.5178 7.95164 27.1814C7.95164 23.7209 7.95164 20.2604 7.95164 16.8002ZM21.4108 32.8311C23.3857 32.8311 25.3626 32.8902 27.3349 32.8174C30.4273 32.7027 32.3293 30.8572 32.4015 27.7677C32.491 23.9182 32.491 20.0634 32.4015 16.2136C32.3293 13.1248 30.4259 11.2361 27.3349 11.1705C23.4115 11.0875 19.4839 11.0881 15.5606 11.1705C12.493 11.2348 10.5854 13.0853 10.5021 16.1401C10.3963 20.0383 10.3963 23.9433 10.5021 27.8415C10.5854 30.896 12.493 32.7037 15.5609 32.8174C17.5084 32.8899 19.4607 32.8311 21.4108 32.8311Z" fill="url(#paint7_linear_2_4807)"/>
<path d="M7.95164 16.8002C8.04082 16.1704 8.10876 15.5371 8.22211 14.9119C8.86462 11.3707 11.3716 8.96134 14.9563 8.83787C19.2723 8.68957 23.6013 8.68173 27.9166 8.83722C31.8181 8.97767 34.6436 11.8665 34.7655 15.7693C34.8951 19.9135 34.8951 24.0678 34.7655 28.212C34.6436 32.1147 31.8191 35.0033 27.917 35.1441C23.6016 35.2999 19.2716 35.3038 14.9566 35.1418C11.0545 34.9951 8.35701 32.0997 8.09602 28.1911C8.07348 27.853 8.00097 27.5178 7.95164 27.1814C7.95164 23.7209 7.95164 20.2604 7.95164 16.8002ZM21.4108 32.8311C23.3857 32.8311 25.3626 32.8902 27.3349 32.8174C30.4273 32.7027 32.3293 30.8572 32.4015 27.7677C32.491 23.9182 32.491 20.0634 32.4015 16.2136C32.3293 13.1248 30.4259 11.2361 27.3349 11.1705C23.4115 11.0875 19.4839 11.0881 15.5606 11.1705C12.493 11.2348 10.5854 13.0853 10.5021 16.1401C10.3963 20.0383 10.3963 23.9433 10.5021 27.8415C10.5854 30.896 12.493 32.7037 15.5609 32.8174C17.5084 32.8899 19.4607 32.8311 21.4108 32.8311Z" fill="white"/>
<path d="M21.4076 15.1358C17.6204 15.1358 14.5499 18.2059 14.5499 21.9931C14.5499 25.7805 17.6204 28.8507 21.4076 28.8507C25.195 28.8507 28.2652 25.7805 28.2652 21.9931C28.2652 18.2059 25.195 15.1358 21.4076 15.1358ZM21.4076 26.4897C18.9241 26.4897 16.911 24.4766 16.911 21.9931C16.911 19.5096 18.9241 17.4964 21.4076 17.4964C23.8911 17.4964 25.9042 19.5096 25.9042 21.9931C25.9042 24.4766 23.8911 26.4897 21.4076 26.4897Z" fill="white"/>
<path d="M30.2966 14.8227C30.2966 15.7236 29.5662 16.454 28.6653 16.454C27.7644 16.454 27.0337 15.7236 27.0337 14.8227C27.0337 13.9215 27.7644 13.1911 28.6653 13.1911C29.5662 13.1911 30.2966 13.9215 30.2966 14.8227Z" fill="white"/>
</g>
<defs>
<radialGradient id="paint0_radial_2_4807" cx="0" cy="0" r="1" gradientUnits="userSpaceOnUse" gradientTransform="translate(8.77669 38.002) scale(47.2166)">
<stop stop-color="#FAE100"/>
<stop offset="0.0544" stop-color="#FADC04"/>
<stop offset="0.1167" stop-color="#FBCE0E"/>
<stop offset="0.1829" stop-color="#FCB720"/>
<stop offset="0.2514" stop-color="#FE9838"/>
<stop offset="0.3054" stop-color="#FF7950"/>
<stop offset="0.4922" stop-color="#FF1C74"/>
<stop offset="1" stop-color="#6C1CD1"/>
</radialGradient>
<linearGradient id="paint1_linear_2_4807" x1="16.4209" y1="19.1884" x2="-56.1116" y2="-21.6111" gradientUnits="userSpaceOnUse">
<stop stop-color="#A1B5D8" stop-opacity="0"/>
<stop offset="0.3094" stop-color="#90A2BD" stop-opacity="0.309804"/>
<stop offset="0.7554" stop-color="#7C8B9C" stop-opacity="0.756863"/>
<stop offset="1" stop-color="#748290"/>
</linearGradient>
<linearGradient id="paint2_linear_2_4807" x1="21.4073" y1="38.3799" x2="21.4073" y2="45.0535" gradientUnits="userSpaceOnUse">
<stop stop-color="#FAE100" stop-opacity="0"/>
<stop offset="0.3068" stop-color="#FCA800" stop-opacity="0.305882"/>
<stop offset="0.6275" stop-color="#FE7300" stop-opacity="0.627451"/>
<stop offset="0.8685" stop-color="#FF5200" stop-opacity="0.866667"/>
<stop offset="1" stop-color="#FF4500"/>
</linearGradient>
<linearGradient id="paint3_linear_2_4807" x1="18.9715" y1="19.4967" x2="8.37568" y2="8.9008" gradientUnits="userSpaceOnUse">
<stop stop-color="#833AB4" stop-opacity="0"/>
<stop offset="1" stop-color="#833AB4"/>
</linearGradient>
<linearGradient id="paint4_linear_2_4807" x1="29.3432" y1="39.7445" x2="24.0546" y2="14.8127" gradientUnits="userSpaceOnUse">
<stop stop-color="#833AB4" stop-opacity="0"/>
<stop offset="1" stop-color="#833AB4"/>
</linearGradient>
<linearGradient id="paint5_linear_2_4807" x1="31.3556" y1="31.9407" x2="10.1137" y2="10.6988" gradientUnits="userSpaceOnUse">
<stop stop-color="#833AB4" stop-opacity="0"/>
<stop offset="1" stop-color="#833AB4"/>
</linearGradient>
<linearGradient id="paint6_linear_2_4807" x1="32.9308" y1="19.0879" x2="25.9065" y2="12.0637" gradientUnits="userSpaceOnUse">
<stop stop-color="#833AB4" stop-opacity="0"/>
<stop offset="1" stop-color="#833AB4"/>
</linearGradient>
<linearGradient id="paint7_linear_2_4807" x1="29.908" y1="13.5513" x2="12.5887" y2="30.8706" gradientUnits="userSpaceOnUse">
<stop stop-color="#833AB4"/>
<stop offset="0.0922" stop-color="#9C3495"/>
<stop offset="0.2927" stop-color="#DC2546"/>
<stop offset="0.392" stop-color="#FD1D1D"/>
<stop offset="0.5589" stop-color="#FC6831"/>
<stop offset="0.6887" stop-color="#FC9B40"/>
<stop offset="0.7521" stop-color="#FCAF45"/>
<stop offset="0.7806" stop-color="#FDB750"/>
<stop offset="0.8656" stop-color="#FECB6A"/>
<stop offset="0.9415" stop-color="#FFD87A"/>
<stop offset="1" stop-color="#FFDC80"/>
</linearGradient>
<clipPath id="clip0_2_4807">
<rect width="42.8143" height="42.8143" fill="white" transform="translate(0 0.585709)"/>
</clipPath>
</defs>
</svg>
