<svg width="45" height="45" viewBox="0 0 45 45" fill="none" xmlns="http://www.w3.org/2000/svg">
<g clip-path="url(#clip0_2_4820)">
<path d="M22.8 44.4C35.0607 44.4 45 34.4607 45 22.2C45 9.93928 35.0607 0 22.8 0C10.5393 0 0.599998 9.93928 0.599998 22.2C0.599998 34.4607 10.5393 44.4 22.8 44.4Z" fill="#4D76A1"/>
<path fill-rule="evenodd" clip-rule="evenodd" d="M21.9615 31.9366H23.7039C23.7039 31.9366 24.2303 31.8788 24.499 31.5891C24.7463 31.3232 24.7384 30.8238 24.7384 30.8238C24.7384 30.8238 24.7044 28.4858 25.7895 28.1415C26.8591 27.8023 28.2327 30.4011 29.6887 31.4003C30.7896 32.1566 31.6262 31.9908 31.6262 31.9908L35.519 31.9366C35.519 31.9366 37.5555 31.8111 36.5899 30.21C36.5108 30.079 36.0276 29.0255 33.6955 26.8609C31.2546 24.5953 31.5815 24.9617 34.5218 21.0428C36.3125 18.6561 37.0284 17.199 36.8048 16.5749C36.5915 15.9805 35.2745 16.1376 35.2745 16.1376L30.8913 16.1649C30.8913 16.1649 30.5664 16.1206 30.3254 16.2646C30.0899 16.4059 29.9384 16.7352 29.9384 16.7352C29.9384 16.7352 29.2446 18.5821 28.3194 20.1527C26.3676 23.467 25.5872 23.6419 25.2683 23.4362C24.5263 22.9565 24.7115 21.5093 24.7115 20.4812C24.7115 17.2694 25.1986 15.9302 23.7629 15.5836C23.2864 15.4684 22.9358 15.3924 21.7173 15.3802C20.1534 15.3639 18.8297 15.3849 18.0801 15.7522C17.5815 15.9963 17.1969 16.5405 17.4311 16.5717C17.7208 16.6105 18.3769 16.7486 18.7248 17.2223C19.1739 17.8333 19.1581 19.2057 19.1581 19.2057C19.1581 19.2057 19.4161 22.9866 18.5554 23.4563C17.9646 23.7785 17.1541 23.1208 15.4141 20.114C14.5225 18.5738 13.8493 16.8713 13.8493 16.8713C13.8493 16.8713 13.7195 16.5531 13.488 16.383C13.207 16.1768 12.8145 16.1111 12.8145 16.1111L8.64935 16.1384C8.64935 16.1384 8.02409 16.1558 7.79456 16.4277C7.59036 16.6695 7.77833 17.1697 7.77833 17.1697C7.77833 17.1697 11.0392 24.7987 14.7314 28.6433C18.1169 32.1681 21.9615 31.9366 21.9615 31.9366Z" fill="white"/>
</g>
<defs>
<clipPath id="clip0_2_4820">
<rect width="44.4" height="44.4" fill="white" transform="translate(0.599998)"/>
</clipPath>
</defs>
</svg>
