<svg width="22" height="22" viewBox="0 0 22 22" fill="none" xmlns="http://www.w3.org/2000/svg">
<path d="M10.962 0.102329H10.9566C4.97034 0.102329 0.102382 4.97164 0.102382 10.9592C0.102382 13.3342 0.867792 15.5354 2.16926 17.3227L0.816222 21.356L4.98934 20.022C6.70608 21.1593 8.75397 21.8161 10.962 21.8161C16.9482 21.8161 21.8162 16.9454 21.8162 10.9592C21.8162 4.973 16.9482 0.102329 10.962 0.102329Z" fill="#4CAF50"/>
<path d="M17.2797 15.4334C17.0177 16.1731 15.9782 16.7865 15.149 16.9656C14.5817 17.0864 13.8407 17.1828 11.3464 16.1486C8.1558 14.8268 6.10114 11.5847 5.941 11.3743C5.78765 11.164 4.65174 9.65759 4.65174 8.09963C4.65174 6.54166 5.44294 5.78304 5.76186 5.45733C6.02378 5.18998 6.4567 5.06784 6.87198 5.06784C7.00633 5.06784 7.12712 5.07463 7.23568 5.08005C7.55461 5.09363 7.71474 5.11263 7.9251 5.61611C8.18702 6.24717 8.82486 7.80513 8.90086 7.96527C8.97821 8.12541 9.05557 8.34255 8.947 8.5529C8.84522 8.77004 8.75565 8.86639 8.59551 9.05096C8.43537 9.23553 8.28337 9.37667 8.12323 9.5748C7.97667 9.74716 7.8111 9.93172 7.99567 10.2506C8.18023 10.5628 8.81808 11.6037 9.7572 12.4397C10.9691 13.5186 11.9516 13.8633 12.3031 14.0098C12.5651 14.1184 12.8772 14.0926 13.0685 13.8891C13.3115 13.6271 13.6114 13.1929 13.9167 12.7654C14.1339 12.4587 14.408 12.4207 14.6957 12.5292C14.9889 12.631 16.54 13.3978 16.859 13.5566C17.1779 13.7167 17.3882 13.7927 17.4656 13.9271C17.5416 14.0614 17.5416 14.6925 17.2797 15.4334Z" fill="#FAFAFA"/>
</svg>
