<svg width="288" height="294" viewBox="0 0 288 294" fill="none" xmlns="http://www.w3.org/2000/svg">
<circle cx="3.47487" cy="111.864" r="2.5" transform="rotate(55.6304 3.47487 111.864)" fill="#E67DDE"/>
<circle cx="23.2848" cy="98.3157" r="2.5" transform="rotate(55.6304 23.2848 98.3157)" fill="#E67DDE"/>
<circle cx="43.0947" cy="84.7668" r="2.5" transform="rotate(55.6304 43.0947 84.7668)" fill="#E67DDE"/>
<circle cx="62.9046" cy="71.2183" r="2.5" transform="rotate(55.6304 62.9046 71.2183)" fill="#E67DDE"/>
<circle cx="71.2183" cy="210.914" r="2.5" transform="rotate(55.6304 71.2183 210.914)" fill="#E67DDE"/>
<circle cx="91.0283" cy="197.365" r="2.5" transform="rotate(55.6304 91.0283 197.365)" fill="#E67DDE"/>
<circle cx="110.838" cy="183.817" r="2.5" transform="rotate(55.6304 110.838 183.817)" fill="#E67DDE"/>
<circle cx="130.648" cy="170.268" r="2.5" transform="rotate(55.6304 130.648 170.268)" fill="#E67DDE"/>
<circle cx="17.0236" cy="131.674" r="2.5" transform="rotate(55.6304 17.0236 131.674)" fill="#E67DDE"/>
<circle cx="36.8335" cy="118.125" r="2.5" transform="rotate(55.6304 36.8335 118.125)" fill="#E67DDE"/>
<circle cx="56.6434" cy="104.577" r="2.5" transform="rotate(55.6304 56.6434 104.577)" fill="#E67DDE"/>
<circle cx="76.4533" cy="91.0281" r="2.5" transform="rotate(55.6304 76.4533 91.0281)" fill="#E67DDE"/>
<circle cx="84.767" cy="230.724" r="2.5" transform="rotate(55.6304 84.767 230.724)" fill="#E67DDE"/>
<circle cx="104.577" cy="217.175" r="2.5" transform="rotate(55.6304 104.577 217.175)" fill="#E67DDE"/>
<circle cx="124.387" cy="203.626" r="2.5" transform="rotate(55.6304 124.387 203.626)" fill="#E67DDE"/>
<circle cx="144.197" cy="190.078" r="2.5" transform="rotate(55.6304 144.197 190.078)" fill="#E67DDE"/>
<circle cx="30.5723" cy="151.484" r="2.5" transform="rotate(55.6304 30.5723 151.484)" fill="#E67DDE"/>
<circle cx="50.3822" cy="137.936" r="2.5" transform="rotate(55.6304 50.3822 137.936)" fill="#E67DDE"/>
<circle cx="70.1921" cy="124.387" r="2.5" transform="rotate(55.6304 70.1921 124.387)" fill="#E67DDE"/>
<circle cx="90.002" cy="110.838" r="2.5" transform="rotate(55.6304 90.002 110.838)" fill="#E67DDE"/>
<circle cx="98.3157" cy="250.534" r="2.5" transform="rotate(55.6304 98.3157 250.534)" fill="#E67DDE"/>
<circle cx="118.126" cy="236.985" r="2.5" transform="rotate(55.6304 118.126 236.985)" fill="#E67DDE"/>
<circle cx="137.936" cy="223.436" r="2.5" transform="rotate(55.6304 137.936 223.436)" fill="#E67DDE"/>
<circle cx="157.745" cy="209.888" r="2.5" transform="rotate(55.6304 157.745 209.888)" fill="#E67DDE"/>
<circle cx="44.121" cy="171.294" r="2.5" transform="rotate(55.6304 44.121 171.294)" fill="#E67DDE"/>
<circle cx="63.9309" cy="157.745" r="2.5" transform="rotate(55.6304 63.9309 157.745)" fill="#E67DDE"/>
<circle cx="83.7408" cy="144.197" r="2.5" transform="rotate(55.6304 83.7408 144.197)" fill="#E67DDE"/>
<circle cx="103.551" cy="130.648" r="2.5" transform="rotate(55.6304 103.551 130.648)" fill="#E67DDE"/>
<circle cx="111.864" cy="270.344" r="2.5" transform="rotate(55.6304 111.864 270.344)" fill="#E67DDE"/>
<circle cx="131.674" cy="256.795" r="2.5" transform="rotate(55.6304 131.674 256.795)" fill="#E67DDE"/>
<circle cx="151.484" cy="243.246" r="2.5" transform="rotate(55.6304 151.484 243.246)" fill="#E67DDE"/>
<circle cx="171.294" cy="229.698" r="2.5" transform="rotate(55.6304 171.294 229.698)" fill="#E67DDE"/>
<circle cx="57.6696" cy="191.104" r="2.5" transform="rotate(55.6304 57.6696 191.104)" fill="#E67DDE"/>
<circle cx="77.4796" cy="177.555" r="2.5" transform="rotate(55.6304 77.4796 177.555)" fill="#E67DDE"/>
<circle cx="97.2895" cy="164.007" r="2.5" transform="rotate(55.6304 97.2895 164.007)" fill="#E67DDE"/>
<circle cx="117.099" cy="150.458" r="2.5" transform="rotate(55.6304 117.099 150.458)" fill="#E67DDE"/>
<circle cx="125.413" cy="290.154" r="2.5" transform="rotate(55.6304 125.413 290.154)" fill="#E67DDE"/>
<circle cx="145.223" cy="276.605" r="2.5" transform="rotate(55.6304 145.223 276.605)" fill="#E67DDE"/>
<circle cx="165.033" cy="263.056" r="2.5" transform="rotate(55.6304 165.033 263.056)" fill="#E67DDE"/>
<circle cx="184.843" cy="249.508" r="2.5" transform="rotate(55.6304 184.843 249.508)" fill="#E67DDE"/>
<circle cx="82.7146" cy="57.6694" r="2.5" transform="rotate(55.6304 82.7146 57.6694)" fill="#E67DDE"/>
<circle cx="102.524" cy="44.1209" r="2.5" transform="rotate(55.6304 102.524 44.1209)" fill="#E67DDE"/>
<circle cx="122.334" cy="30.572" r="2.5" transform="rotate(55.6304 122.334 30.572)" fill="#E67DDE"/>
<circle cx="142.144" cy="17.0234" r="2.5" transform="rotate(55.6304 142.144 17.0234)" fill="#E67DDE"/>
<circle cx="150.458" cy="156.719" r="2.5" transform="rotate(55.6304 150.458 156.719)" fill="#E67DDE"/>
<circle cx="170.268" cy="143.17" r="2.5" transform="rotate(55.6304 170.268 143.17)" fill="#E67DDE"/>
<circle cx="190.078" cy="129.622" r="2.5" transform="rotate(55.6304 190.078 129.622)" fill="#E67DDE"/>
<circle cx="209.888" cy="116.073" r="2.5" transform="rotate(55.6304 209.888 116.073)" fill="#E67DDE"/>
<circle cx="96.2632" cy="77.4795" r="2.5" transform="rotate(55.6304 96.2632 77.4795)" fill="#E67DDE"/>
<circle cx="116.073" cy="63.9307" r="2.5" transform="rotate(55.6304 116.073 63.9307)" fill="#E67DDE"/>
<circle cx="135.883" cy="50.3821" r="2.5" transform="rotate(55.6304 135.883 50.3821)" fill="#E67DDE"/>
<circle cx="155.693" cy="36.8333" r="2.5" transform="rotate(55.6304 155.693 36.8333)" fill="#E67DDE"/>
<circle cx="164.007" cy="176.529" r="2.5" transform="rotate(55.6304 164.007 176.529)" fill="#E67DDE"/>
<circle cx="183.817" cy="162.98" r="2.5" transform="rotate(55.6304 183.817 162.98)" fill="#E67DDE"/>
<circle cx="203.627" cy="149.432" r="2.5" transform="rotate(55.6304 203.627 149.432)" fill="#E67DDE"/>
<circle cx="223.436" cy="135.883" r="2.5" transform="rotate(55.6304 223.436 135.883)" fill="#E67DDE"/>
<circle cx="109.812" cy="97.2893" r="2.5" transform="rotate(55.6304 109.812 97.2893)" fill="#E67DDE"/>
<circle cx="129.622" cy="83.7407" r="2.5" transform="rotate(55.6304 129.622 83.7407)" fill="#E67DDE"/>
<circle cx="149.432" cy="70.1919" r="2.5" transform="rotate(55.6304 149.432 70.1919)" fill="#E67DDE"/>
<circle cx="169.242" cy="56.6433" r="2.5" transform="rotate(55.6304 169.242 56.6433)" fill="#E67DDE"/>
<circle cx="177.555" cy="196.339" r="2.5" transform="rotate(55.6304 177.555 196.339)" fill="#E67DDE"/>
<circle cx="197.365" cy="182.79" r="2.5" transform="rotate(55.6304 197.365 182.79)" fill="#E67DDE"/>
<circle cx="217.175" cy="169.241" r="2.5" transform="rotate(55.6304 217.175 169.241)" fill="#E67DDE"/>
<circle cx="236.985" cy="155.693" r="2.5" transform="rotate(55.6304 236.985 155.693)" fill="#E67DDE"/>
<circle cx="123.361" cy="117.099" r="2.5" transform="rotate(55.6304 123.361 117.099)" fill="#E67DDE"/>
<circle cx="143.171" cy="103.551" r="2.5" transform="rotate(55.6304 143.171 103.551)" fill="#E67DDE"/>
<circle cx="162.98" cy="90.002" r="2.5" transform="rotate(55.6304 162.98 90.002)" fill="#E67DDE"/>
<circle cx="182.79" cy="76.4531" r="2.5" transform="rotate(55.6304 182.79 76.4531)" fill="#E67DDE"/>
<circle cx="191.104" cy="216.149" r="2.5" transform="rotate(55.6304 191.104 216.149)" fill="#E67DDE"/>
<circle cx="210.914" cy="202.6" r="2.5" transform="rotate(55.6304 210.914 202.6)" fill="#E67DDE"/>
<circle cx="230.724" cy="189.052" r="2.5" transform="rotate(55.6304 230.724 189.052)" fill="#E67DDE"/>
<circle cx="250.534" cy="175.503" r="2.5" transform="rotate(55.6304 250.534 175.503)" fill="#E67DDE"/>
<circle cx="136.909" cy="136.909" r="2.5" transform="rotate(55.6304 136.909 136.909)" fill="#E67DDE"/>
<circle cx="156.719" cy="123.361" r="2.5" transform="rotate(55.6304 156.719 123.361)" fill="#E67DDE"/>
<circle cx="176.529" cy="109.812" r="2.5" transform="rotate(55.6304 176.529 109.812)" fill="#E67DDE"/>
<circle cx="196.339" cy="96.2632" r="2.5" transform="rotate(55.6304 196.339 96.2632)" fill="#E67DDE"/>
<circle cx="204.653" cy="235.959" r="2.5" transform="rotate(55.6304 204.653 235.959)" fill="#E67DDE"/>
<circle cx="224.463" cy="222.41" r="2.5" transform="rotate(55.6304 224.463 222.41)" fill="#E67DDE"/>
<circle cx="244.273" cy="208.861" r="2.5" transform="rotate(55.6304 244.273 208.861)" fill="#E67DDE"/>
<circle cx="264.083" cy="195.313" r="2.5" transform="rotate(55.6304 264.083 195.313)" fill="#E67DDE"/>
<circle cx="161.954" cy="3.47486" r="2.5" transform="rotate(55.6304 161.954 3.47486)" fill="#E67DDE"/>
<circle cx="229.698" cy="102.524" r="2.5" transform="rotate(55.6304 229.698 102.524)" fill="#E67DDE"/>
<circle cx="175.503" cy="23.2847" r="2.5" transform="rotate(55.6304 175.503 23.2847)" fill="#E67DDE"/>
<circle cx="243.246" cy="122.334" r="2.5" transform="rotate(55.6304 243.246 122.334)" fill="#E67DDE"/>
<circle cx="189.052" cy="43.0947" r="2.5" transform="rotate(55.6304 189.052 43.0947)" fill="#E67DDE"/>
<circle cx="256.795" cy="142.144" r="2.5" transform="rotate(55.6304 256.795 142.144)" fill="#E67DDE"/>
<circle cx="202.6" cy="62.9045" r="2.5" transform="rotate(55.6304 202.6 62.9045)" fill="#E67DDE"/>
<circle cx="270.344" cy="161.954" r="2.5" transform="rotate(55.6304 270.344 161.954)" fill="#E67DDE"/>
<circle cx="216.149" cy="82.7146" r="2.5" transform="rotate(55.6304 216.149 82.7146)" fill="#E67DDE"/>
<circle cx="283.892" cy="181.764" r="2.5" transform="rotate(55.6304 283.892 181.764)" fill="#E67DDE"/>
</svg>
